<svg width="30" height="30" viewBox="0 0 30 30" fill="none" xmlns="http://www.w3.org/2000/svg">
<rect width="30" height="30" rx="7" fill="#007AFF"/>
<path d="M18 6H17.25C16.8522 6 16.4706 6.15804 16.1893 6.43934C15.908 6.72064 15.75 7.10218 15.75 7.5V12.75H8.175C8.00096 11.9035 7.54041 11.143 6.87097 10.5965C6.20154 10.05 5.36416 9.75106 4.5 9.75C4.30109 9.75 4.11032 9.82902 3.96967 9.96967C3.82902 10.1103 3.75 10.3011 3.75 10.5C3.75 10.6989 3.82902 10.8897 3.96967 11.0303C4.11032 11.171 4.30109 11.25 4.5 11.25C5.09674 11.25 5.66903 11.4871 6.09099 11.909C6.51295 12.331 6.75 12.9033 6.75 13.5C6.75223 15.4884 7.54313 17.3948 8.94917 18.8008C10.3552 20.2069 12.2616 20.9978 14.25 21H18C19.9891 21 21.8968 20.2098 23.3033 18.8033C24.7098 17.3968 25.5 15.4891 25.5 13.5C25.5 11.5109 24.7098 9.60322 23.3033 8.1967C21.8968 6.79018 19.9891 6 18 6ZM23.9513 12.75H18.6384L22.5628 9.61031C23.3228 10.4985 23.8055 11.5901 23.9513 12.75ZM18 7.5C19.2315 7.49884 20.4331 7.87907 21.4397 8.58844L17.25 11.9391V7.5H18ZM18 19.5H14.25C12.7891 19.4982 11.3788 18.9643 10.2831 17.998C9.1874 17.0317 8.48129 15.6992 8.29688 14.25H23.9531C23.7687 15.6992 23.0626 17.0317 21.9669 17.998C20.8712 18.9643 19.4609 19.4982 18 19.5ZM12.75 24C12.75 24.2967 12.662 24.5867 12.4972 24.8334C12.3324 25.08 12.0981 25.2723 11.824 25.3858C11.5499 25.4994 11.2483 25.5291 10.9574 25.4712C10.6664 25.4133 10.3991 25.2704 10.1893 25.0607C9.97956 24.8509 9.8367 24.5836 9.77882 24.2926C9.72094 24.0017 9.75065 23.7001 9.86418 23.426C9.97771 23.1519 10.17 22.9176 10.4166 22.7528C10.6633 22.588 10.9533 22.5 11.25 22.5C11.6478 22.5 12.0294 22.658 12.3107 22.9393C12.592 23.2206 12.75 23.6022 12.75 24ZM22.5 24C22.5 24.2967 22.412 24.5867 22.2472 24.8334C22.0824 25.08 21.8481 25.2723 21.574 25.3858C21.2999 25.4994 20.9983 25.5291 20.7074 25.4712C20.4164 25.4133 20.1491 25.2704 19.9393 25.0607C19.7296 24.8509 19.5867 24.5836 19.5288 24.2926C19.4709 24.0017 19.5006 23.7001 19.6142 23.426C19.7277 23.1519 19.92 22.9176 20.1666 22.7528C20.4133 22.588 20.7033 22.5 21 22.5C21.3978 22.5 21.7794 22.658 22.0607 22.9393C22.342 23.2206 22.5 23.6022 22.5 24Z" fill="white"/>
</svg>
