<svg width="30" height="30" viewBox="0 0 30 30" fill="none" xmlns="http://www.w3.org/2000/svg">
<rect width="30" height="30" rx="7" fill="#007AFF"/>
<path d="M24 7.5H6C5.60218 7.5 5.22064 7.65804 4.93934 7.93934C4.65804 8.22064 4.5 8.60218 4.5 9V21C4.5 21.3978 4.65804 21.7794 4.93934 22.0607C5.22064 22.342 5.60218 22.5 6 22.5H24C24.3978 22.5 24.7794 22.342 25.0607 22.0607C25.342 21.7794 25.5 21.3978 25.5 21V9C25.5 8.60218 25.342 8.22064 25.0607 7.93934C24.7794 7.65804 24.3978 7.5 24 7.5ZM24 9V11.25H6V9H24ZM24 21H6V12.75H24V21ZM22.5 18.75C22.5 18.9489 22.421 19.1397 22.2803 19.2803C22.1397 19.421 21.9489 19.5 21.75 19.5H18.75C18.5511 19.5 18.3603 19.421 18.2197 19.2803C18.079 19.1397 18 18.9489 18 18.75C18 18.5511 18.079 18.3603 18.2197 18.2197C18.3603 18.079 18.5511 18 18.75 18H21.75C21.9489 18 22.1397 18.079 22.2803 18.2197C22.421 18.3603 22.5 18.5511 22.5 18.75ZM16.5 18.75C16.5 18.9489 16.421 19.1397 16.2803 19.2803C16.1397 19.421 15.9489 19.5 15.75 19.5H14.25C14.0511 19.5 13.8603 19.421 13.7197 19.2803C13.579 19.1397 13.5 18.9489 13.5 18.75C13.5 18.5511 13.579 18.3603 13.7197 18.2197C13.8603 18.079 14.0511 18 14.25 18H15.75C15.9489 18 16.1397 18.079 16.2803 18.2197C16.421 18.3603 16.5 18.5511 16.5 18.75Z" fill="white"/>
</svg>
