<svg width="30" height="30" viewBox="0 0 30 30" fill="none" xmlns="http://www.w3.org/2000/svg">
<rect width="30" height="30" rx="7" fill="#007AFF"/>
<path d="M25.5 12.75H24.4875L21.8831 6.89062C21.7653 6.62553 21.5731 6.40029 21.3298 6.24222C21.0865 6.08414 20.8026 6 20.5125 6H9.4875C9.19738 6 8.91349 6.08414 8.67022 6.24222C8.42695 6.40029 8.23474 6.62553 8.11688 6.89062L5.5125 12.75H4.5C4.30109 12.75 4.11032 12.829 3.96967 12.9697C3.82902 13.1103 3.75 13.3011 3.75 13.5C3.75 13.6989 3.82902 13.8897 3.96967 14.0303C4.11032 14.171 4.30109 14.25 4.5 14.25H5.25V21.75C5.25 22.1478 5.40804 22.5294 5.68934 22.8107C5.97064 23.092 6.35218 23.25 6.75 23.25H9C9.39782 23.25 9.77936 23.092 10.0607 22.8107C10.342 22.5294 10.5 22.1478 10.5 21.75V20.25H19.5V21.75C19.5 22.1478 19.658 22.5294 19.9393 22.8107C20.2206 23.092 20.6022 23.25 21 23.25H23.25C23.6478 23.25 24.0294 23.092 24.3107 22.8107C24.592 22.5294 24.75 22.1478 24.75 21.75V14.25H25.5C25.6989 14.25 25.8897 14.171 26.0303 14.0303C26.171 13.8897 26.25 13.6989 26.25 13.5C26.25 13.3011 26.171 13.1103 26.0303 12.9697C25.8897 12.829 25.6989 12.75 25.5 12.75ZM9.4875 7.5H20.5125L22.8459 12.75H7.15406L9.4875 7.5ZM23.25 21.75H21V19.5C21 19.3011 20.921 19.1103 20.7803 18.9697C20.6397 18.829 20.4489 18.75 20.25 18.75H9.75C9.55109 18.75 9.36032 18.829 9.21967 18.9697C9.07902 19.1103 9 19.3011 9 19.5V21.75H6.75V14.25H23.25V21.75Z" fill="white"/>
</svg>
