<svg width="30" height="30" viewBox="0 0 30 30" fill="none" xmlns="http://www.w3.org/2000/svg">
<rect width="30" height="30" rx="7" fill="#007AFF"/>
<path d="M25.5 12.9534V9.75C25.5 9.35218 25.342 8.97064 25.0607 8.68934C24.7794 8.40804 24.3978 8.25 24 8.25H6C5.60218 8.25 5.22064 8.40804 4.93934 8.68934C4.65804 8.97064 4.5 9.35218 4.5 9.75V12.9534C4.27233 13.0849 4.08321 13.2738 3.95158 13.5014C3.81995 13.729 3.75043 13.9871 3.75 14.25V18.75C3.75 19.1478 3.90804 19.5294 4.18934 19.8107C4.47064 20.092 4.85218 20.25 5.25 20.25H6V21.75C6 21.9489 6.07902 22.1397 6.21967 22.2803C6.36032 22.421 6.55109 22.5 6.75 22.5C6.94891 22.5 7.13968 22.421 7.28033 22.2803C7.42098 22.1397 7.5 21.9489 7.5 21.75V20.25H22.5V21.75C22.5 21.9489 22.579 22.1397 22.7197 22.2803C22.8603 22.421 23.0511 22.5 23.25 22.5C23.4489 22.5 23.6397 22.421 23.7803 22.2803C23.921 22.1397 24 21.9489 24 21.75V20.25H24.75C25.1478 20.25 25.5294 20.092 25.8107 19.8107C26.092 19.5294 26.25 19.1478 26.25 18.75V14.25C26.2496 13.9871 26.18 13.729 26.0484 13.5014C25.9168 13.2738 25.7277 13.0849 25.5 12.9534ZM24 12.75H23.25C22.8522 12.75 22.4706 12.908 22.1893 13.1893C21.908 13.4706 21.75 13.8522 21.75 14.25V15.75H15.75V9.75H24V12.75ZM14.25 9.75V15.75H8.25V14.25C8.25 13.8522 8.09196 13.4706 7.81066 13.1893C7.52936 12.908 7.14782 12.75 6.75 12.75H6V9.75H14.25ZM24.75 18.75H5.25V14.25H6.75V16.5C6.75 16.6989 6.82902 16.8897 6.96967 17.0303C7.11032 17.171 7.30109 17.25 7.5 17.25H22.5C22.6989 17.25 22.8897 17.171 23.0303 17.0303C23.171 16.8897 23.25 16.6989 23.25 16.5V14.25H24.75V18.75Z" fill="white"/>
</svg>
