<svg width="30" height="30" viewBox="0 0 30 30" fill="none" xmlns="http://www.w3.org/2000/svg">
<rect width="30" height="30" rx="7" fill="#007AFF"/>
<path d="M14.25 9C14.25 9.19891 14.171 9.38968 14.0303 9.53033C13.8897 9.67098 13.6989 9.75 13.5 9.75H12C11.8011 9.75 11.6103 9.67098 11.4697 9.53033C11.329 9.38968 11.25 9.19891 11.25 9C11.25 8.80109 11.329 8.61032 11.4697 8.46967C11.6103 8.32902 11.8011 8.25 12 8.25H13.5C13.6989 8.25 13.8897 8.32902 14.0303 8.46967C14.171 8.61032 14.25 8.80109 14.25 9ZM19.155 21.4819L19.485 23.7881C19.5154 24.0009 19.4996 24.2176 19.4389 24.4238C19.3782 24.6299 19.2739 24.8206 19.1331 24.9829C18.9923 25.1452 18.8183 25.2754 18.6228 25.3646C18.4273 25.4538 18.2149 25.5 18 25.5H12C11.7851 25.5 11.5727 25.4538 11.3772 25.3646C11.1817 25.2754 11.0077 25.1452 10.8669 24.9829C10.7261 24.8206 10.6218 24.6299 10.5611 24.4238C10.5004 24.2176 10.4846 24.0009 10.515 23.7881L10.845 21.4819C9.38522 20.7211 8.16181 19.5748 7.30765 18.1677C6.45349 16.7605 6.00123 15.1461 6 13.5C6 13.3011 6.07902 13.1103 6.21967 12.9697C6.36032 12.829 6.55109 12.75 6.75 12.75H8.25V6.75C8.25 6.35218 8.40804 5.97064 8.68934 5.68934C8.97064 5.40804 9.35218 5.25 9.75 5.25H20.25C20.6478 5.25 21.0294 5.40804 21.3107 5.68934C21.592 5.97064 21.75 6.35218 21.75 6.75V12.75H23.25C23.4489 12.75 23.6397 12.829 23.7803 12.9697C23.921 13.1103 24 13.3011 24 13.5C23.9988 15.1461 23.5465 16.7605 22.6924 18.1677C21.8382 19.5748 20.6148 20.7211 19.155 21.4819ZM9.75 12.75H20.25V6.75H9.75V12.75ZM17.7253 22.0781C15.952 22.6406 14.048 22.6406 12.2747 22.0781L12 24H18L17.7253 22.0781ZM22.4625 14.25H7.5375C7.72321 16.1001 8.58958 17.8153 9.9685 19.0628C11.3474 20.3102 13.1406 21.0009 15 21.0009C16.8594 21.0009 18.6526 20.3102 20.0315 19.0628C21.4104 17.8153 22.2768 16.1001 22.4625 14.25Z" fill="white"/>
</svg>
