<svg width="30" height="30" viewBox="0 0 30 30" fill="none" xmlns="http://www.w3.org/2000/svg">
<rect width="30" height="30" rx="7" fill="#007AFF"/>
<path d="M16.1254 22.125C16.1254 22.3475 16.0594 22.565 15.9358 22.75C15.8121 22.935 15.6364 23.0792 15.4309 23.1644C15.2253 23.2495 14.9991 23.2718 14.7809 23.2284C14.5626 23.185 14.3622 23.0778 14.2049 22.9205C14.0475 22.7632 13.9404 22.5627 13.897 22.3445C13.8536 22.1262 13.8758 21.9 13.961 21.6945C14.0461 21.4889 14.1903 21.3132 14.3753 21.1896C14.5603 21.066 14.7779 21 15.0004 21C15.2987 21 15.5849 21.1185 15.7958 21.3295C16.0068 21.5405 16.1254 21.8266 16.1254 22.125ZM25.2266 11.1562C22.3433 8.79129 18.7295 7.49878 15.0004 7.49878C11.2712 7.49878 7.65739 8.79129 4.77411 11.1562C4.69796 11.2188 4.63488 11.2957 4.58846 11.3826C4.54204 11.4696 4.5132 11.5648 4.50358 11.6628C4.49396 11.7609 4.50375 11.8599 4.5324 11.9542C4.56104 12.0485 4.60797 12.1362 4.67051 12.2123C4.73305 12.2885 4.80998 12.3516 4.8969 12.398C4.98382 12.4444 5.07904 12.4732 5.1771 12.4829C5.37516 12.5023 5.57282 12.4422 5.72661 12.3159C8.34149 10.1716 11.6187 8.9997 15.0004 8.9997C18.382 8.9997 21.6592 10.1716 24.2741 12.3159C24.4279 12.4422 24.6256 12.5023 24.8236 12.4829C25.0217 12.4634 25.2039 12.3661 25.3302 12.2123C25.4565 12.0586 25.5166 11.8609 25.4971 11.6628C25.4777 11.4648 25.3804 11.2826 25.2266 11.1562ZM22.2191 14.5097C20.1654 12.8837 17.6227 11.999 15.0032 11.999C12.3837 11.999 9.84098 12.8837 7.78723 14.5097C7.63133 14.6333 7.53091 14.8137 7.50805 15.0113C7.4852 15.2089 7.54178 15.4075 7.66536 15.5634C7.78893 15.7193 7.96937 15.8198 8.16699 15.8426C8.36461 15.8655 8.56321 15.8089 8.71911 15.6853C10.5077 14.2695 12.722 13.4992 15.0032 13.4992C17.2843 13.4992 19.4986 14.2695 21.2872 15.6853C21.3644 15.7465 21.4529 15.7919 21.5476 15.8189C21.6424 15.8459 21.7415 15.854 21.8394 15.8426C21.9372 15.8313 22.0319 15.8008 22.1179 15.7529C22.204 15.705 22.2798 15.6406 22.341 15.5634C22.4022 15.4862 22.4476 15.3978 22.4746 15.303C22.5016 15.2083 22.5096 15.1092 22.4983 15.0113C22.487 14.9135 22.4565 14.8188 22.4086 14.7327C22.3607 14.6467 22.2963 14.5709 22.2191 14.5097ZM19.1947 17.8622C17.9765 16.9768 16.5092 16.4999 15.0032 16.4999C13.4972 16.4999 12.0299 16.9768 10.8116 17.8622C10.6507 17.9793 10.543 18.1555 10.512 18.3521C10.4811 18.5486 10.5295 18.7494 10.6466 18.9103C10.7637 19.0712 10.9399 19.1789 11.1365 19.2099C11.3331 19.2408 11.5339 19.1924 11.6947 19.0753C12.6562 18.3761 13.8144 17.9995 15.0032 17.9995C16.192 17.9995 17.3502 18.3761 18.3116 19.0753C18.3913 19.1333 18.4816 19.175 18.5773 19.1981C18.6731 19.2212 18.7725 19.2252 18.8698 19.2099C18.9672 19.1946 19.0605 19.1602 19.1446 19.1088C19.2286 19.0574 19.3017 18.99 19.3597 18.9103C19.4177 18.8307 19.4594 18.7404 19.4825 18.6446C19.5056 18.5488 19.5096 18.4494 19.4943 18.3521C19.479 18.2547 19.4446 18.1614 19.3932 18.0773C19.3418 17.9933 19.2744 17.9202 19.1947 17.8622Z" fill="white"/>
</svg>
