<svg width="40" height="40" viewBox="0 0 40 40" fill="none" xmlns="http://www.w3.org/2000/svg">
<rect width="40" height="40" rx="8" fill="#FF9500"/>
<g clip-path="url(#clip0_1378_8912)">
<path d="M7.0625 19.1455C7.0625 20.9736 8.35449 21.9844 9.81348 21.9844C10.4111 21.9844 10.8682 21.8086 11.4043 21.4746C11.9229 21.167 12.2832 21.3516 12.2832 21.791V24.9727C12.2832 26.7832 13.25 27.7236 15.0781 27.7236H17.3457C17.7852 27.7236 17.9697 27.3633 17.6621 26.8535C17.3281 26.3174 17.1523 25.8604 17.1523 25.2539C17.1523 23.8037 18.1631 22.5029 19.9912 22.5029C21.8281 22.5029 22.8389 23.8037 22.8389 25.2539C22.8389 25.8604 22.6631 26.3174 22.3291 26.8535C22.0215 27.3633 22.2061 27.7236 22.6455 27.7236H24.9131C26.7412 27.7236 27.708 26.7832 27.708 24.9727V21.791C27.708 21.3516 28.0684 21.167 28.5869 21.4746C29.123 21.8086 29.5801 21.9844 30.1777 21.9844C31.6367 21.9844 32.9287 20.9736 32.9287 19.1455C32.9287 17.3086 31.6367 16.3066 30.1777 16.3066C29.5801 16.3066 29.123 16.4736 28.5869 16.8076C28.0684 17.1152 27.708 16.9307 27.708 16.4912V13.3184C27.708 11.5078 26.7412 10.5674 24.9131 10.5674H22.6455C22.2061 10.5674 22.0215 10.9277 22.3291 11.4375C22.6631 11.9736 22.8389 12.4307 22.8389 13.0371C22.8389 14.4873 21.8281 15.7881 19.9912 15.7881C18.1631 15.7881 17.1523 14.4873 17.1523 13.0371C17.1523 12.4307 17.3281 11.9736 17.6621 11.4375C17.9697 10.9277 17.7852 10.5674 17.3457 10.5674H15.0781C13.25 10.5674 12.2832 11.5078 12.2832 13.3184V16.4912C12.2832 16.9307 11.9229 17.1152 11.4043 16.8076C10.8682 16.4736 10.4111 16.3066 9.81348 16.3066C8.35449 16.3066 7.0625 17.3086 7.0625 19.1455Z" fill="white"/>
</g>
<defs>
<clipPath id="clip0_1378_8912">
<rect width="28" height="28" fill="white" transform="translate(6 5.5)"/>
</clipPath>
</defs>
</svg>
