<svg width="24" height="22" viewBox="0 0 24 22" fill="none" xmlns="http://www.w3.org/2000/svg">
<path d="M12 22C12.1289 22 12.276 21.9671 12.4411 21.9014C12.6063 21.8357 12.7533 21.7642 12.8822 21.6868C15.1542 20.2952 17.1219 18.8358 18.7856 17.3089C20.4492 15.7819 21.7342 14.2124 22.6405 12.6005C23.5468 10.9884 24 9.35896 24 7.71215C24 6.68386 23.8288 5.74255 23.4865 4.88822C23.1441 4.03389 22.6687 3.2936 22.0604 2.66734C21.4521 2.0411 20.7392 1.55788 19.9214 1.21769C19.1037 0.877506 18.2196 0.707413 17.2689 0.707413C16.0927 0.707413 15.0574 0.99541 14.1631 1.57141C13.2689 2.1474 12.5478 2.91476 12 3.87346C11.4602 2.92249 10.7432 2.15707 9.84895 1.5772C8.95469 0.997342 7.91542 0.707413 6.73112 0.707413C5.78047 0.707413 4.8983 0.877506 4.0846 1.21769C3.2709 1.55788 2.55791 2.0411 1.94563 2.66734C1.33334 3.2936 0.855993 4.03389 0.513596 4.88822C0.171199 5.74255 0 6.68386 0 7.71215C0 9.35896 0.453172 10.9884 1.35952 12.6005C2.26587 14.2124 3.55288 15.7819 5.22055 17.3089C6.88823 18.8358 8.85802 20.2952 11.1299 21.6868C11.2588 21.7642 11.4059 21.8357 11.571 21.9014C11.7362 21.9671 11.8792 22 12 22Z" fill="white"/>
</svg>
