<svg width="40" height="40" viewBox="0 0 40 40" fill="none" xmlns="http://www.w3.org/2000/svg">
<rect width="40" height="40" rx="8" fill="#007AFF"/>
<path d="M20 7.75C17.4482 7.75289 15.0017 8.76788 13.1973 10.5723C11.3929 12.3767 10.3779 14.8232 10.375 17.375C10.375 25.6109 19.125 31.8311 19.498 32.0914C19.6451 32.1945 19.8204 32.2498 20 32.2498C20.1796 32.2498 20.3549 32.1945 20.502 32.0914C20.875 31.8311 29.625 25.6109 29.625 17.375C29.6221 14.8232 28.6071 12.3767 26.8027 10.5723C24.9983 8.76788 22.5518 7.75289 20 7.75ZM20 13.875C20.6922 13.875 21.3689 14.0803 21.9445 14.4649C22.5201 14.8494 22.9687 15.3961 23.2336 16.0356C23.4985 16.6751 23.5678 17.3789 23.4327 18.0578C23.2977 18.7367 22.9644 19.3604 22.4749 19.8499C21.9854 20.3394 21.3617 20.6727 20.6828 20.8077C20.0039 20.9428 19.3001 20.8735 18.6606 20.6086C18.0211 20.3437 17.4744 19.8951 17.0899 19.3195C16.7053 18.7439 16.5 18.0672 16.5 17.375C16.5 16.4467 16.8687 15.5565 17.5251 14.9001C18.1815 14.2437 19.0717 13.875 20 13.875Z" fill="white"/>
</svg>
