<svg width="102" height="108" viewBox="0 0 102 108" fill="none" xmlns="http://www.w3.org/2000/svg">
<g filter="url(#filter0_d_1653_4097)">
<path fill-rule="evenodd" clip-rule="evenodd" d="M54.425 67.6921C63.2837 66.0794 70 58.3241 70 49C70 38.5066 61.4934 30 51 30C40.5066 30 32 38.5066 32 49C32 58.3241 38.7163 66.0794 47.575 67.6921C47.9983 68.7682 50.1024 74 50.9998 74C51.8971 74 54.0016 68.7682 54.425 67.6921Z" fill="white"/>
<path d="M48.5715 40.4326C47.0714 40.9007 45.7944 41.6809 44.7097 42.7891C43.9596 43.5572 43.3827 44.3734 42.9211 45.3095L42.6826 45.7976H44.6251H46.5714L46.5868 45.7056C47.0176 43.5492 47.8253 41.6929 48.7908 40.6367C48.9716 40.4366 49.1024 40.2766 49.087 40.2806C49.0677 40.2806 48.837 40.3486 48.5715 40.4326Z" fill="#2A69F6"/>
<path d="M53.5095 40.6367C54.4711 41.6889 55.275 43.5452 55.7097 45.7056L55.7251 45.7976H57.6675H59.61L59.4138 45.3935C58.6907 43.8893 57.5791 42.577 56.2559 41.6649C55.4443 41.1008 54.5827 40.6847 53.6749 40.4126C53.4249 40.3366 53.2095 40.2766 53.1979 40.2766C53.1864 40.2766 53.3249 40.4407 53.5095 40.6367Z" fill="#2A69F6"/>
<path d="M50.6872 40.7687C49.6179 41.1448 48.5678 42.8491 47.9947 45.1215C47.9101 45.4615 47.8408 45.7496 47.8408 45.7656C47.8408 45.7856 49.3294 45.7976 51.1488 45.7976C52.9682 45.7976 54.4567 45.7856 54.4567 45.7656C54.4567 45.7496 54.3875 45.4615 54.3029 45.1215C53.6374 42.485 52.3489 40.6727 51.1334 40.6767C51.0257 40.6767 50.8257 40.7207 50.6872 40.7687Z" fill="#2A69F6"/>
<path d="M42.8827 53.8832C43.3212 54.7953 43.8597 55.5835 44.5482 56.3156C45.0829 56.8837 45.4521 57.2038 46.0522 57.6198C46.8292 58.1599 47.7062 58.584 48.5639 58.8441C48.7909 58.9081 49.0101 58.9761 49.0524 58.9881C49.0947 59.0001 48.9832 58.8521 48.7947 58.644C47.8177 57.5798 47.0484 55.8075 46.5868 53.5671L46.5714 53.4791H44.629H42.6865L42.8827 53.8832Z" fill="#2A69F6"/>
<path d="M47.8408 53.5072C47.8408 53.5272 47.9101 53.8152 47.9947 54.1553C48.6563 56.7798 49.9448 58.6001 51.1488 58.6001C52.3912 58.6001 53.6836 56.7198 54.3567 53.9313C54.4106 53.7072 54.4567 53.5152 54.4567 53.5032C54.4567 53.4912 52.9682 53.4792 51.1488 53.4792C49.3294 53.4792 47.8408 53.4912 47.8408 53.5072Z" fill="#2A69F6"/>
<path d="M55.7097 53.5668C55.2481 55.7992 54.475 57.5795 53.5095 58.6397C53.3249 58.8357 53.1864 58.9998 53.1979 58.9998C53.2095 58.9998 53.4287 58.9357 53.6826 58.8597C54.7634 58.5357 55.8058 57.9916 56.7636 57.2434C57.1213 56.9674 57.9175 56.1632 58.2522 55.7512C58.6099 55.3031 59.1023 54.523 59.3754 53.9629L59.6138 53.4788H57.6714H55.7251L55.7097 53.5668Z" fill="#2A69F6"/>
<g filter="url(#filter1_d_1653_4097)">
<rect x="41.9445" y="46.1276" width="18.4308" height="7.02129" rx="1.46272" stroke="#0B52F4" stroke-width="1.17018" shape-rendering="crispEdges"/>
</g>
<g clip-path="url(#clip0_1653_4097)">
<path d="M47.5812 48.2422C47.3903 48.2658 47.2132 48.3399 47.0574 48.4616C47.0025 48.5044 46.9071 48.6021 46.8665 48.6569C46.6685 48.9257 46.6081 49.2477 46.6921 49.5916C46.7815 49.9553 47.0316 50.3705 47.4073 50.7787C47.5099 50.89 47.6509 51.026 47.6728 51.0354C47.6959 51.0447 47.7195 51.0447 47.7441 51.0343C47.7672 51.0244 47.9734 50.8198 48.0645 50.7161C48.4095 50.3239 48.6339 49.9432 48.7194 49.6048C48.8078 49.257 48.7474 48.9246 48.5472 48.6564C48.5094 48.6054 48.4194 48.5116 48.3684 48.4704C48.1479 48.2905 47.8626 48.2077 47.5812 48.2422ZM47.7677 48.7057C47.8358 48.7134 47.8933 48.7299 47.9515 48.7573C48.082 48.8187 48.1758 48.9125 48.2367 49.042C48.342 49.2653 48.2927 49.5324 48.1144 49.7052C47.9378 49.8758 47.6811 49.9202 47.4627 49.8171C47.3964 49.7853 47.3514 49.7545 47.3004 49.7052C47.1221 49.5324 47.0727 49.2653 47.1781 49.042C47.2746 48.8379 47.4732 48.7079 47.6992 48.7008C47.7112 48.7008 47.742 48.703 47.7677 48.7057Z" fill="#0B52F4"/>
</g>
<g clip-path="url(#clip1_1653_4097)">
<path d="M54.4865 48.2422C54.2956 48.2658 54.1184 48.3399 53.9627 48.4616C53.9078 48.5044 53.8124 48.6021 53.7718 48.6569C53.5737 48.9257 53.5134 49.2477 53.5973 49.5916C53.6867 49.9553 53.9369 50.3705 54.3126 50.7787C54.4152 50.89 54.5562 51.026 54.5781 51.0354C54.6011 51.0447 54.6247 51.0447 54.6494 51.0343C54.6725 51.0244 54.8787 50.8198 54.9698 50.7161C55.3148 50.3239 55.5391 49.9432 55.6247 49.6048C55.713 49.257 55.6527 48.9246 55.4525 48.6564C55.4146 48.6054 55.3247 48.5116 55.2737 48.4704C55.0531 48.2905 54.7679 48.2077 54.4865 48.2422ZM54.673 48.7057C54.741 48.7134 54.7986 48.7299 54.8568 48.7573C54.9873 48.8187 55.0811 48.9125 55.142 49.042C55.2473 49.2653 55.198 49.5324 55.0197 49.7052C54.8431 49.8758 54.5863 49.9202 54.368 49.8171C54.3016 49.7853 54.2567 49.7545 54.2057 49.7052C54.0274 49.5324 53.978 49.2653 54.0833 49.042C54.1799 48.8379 54.3784 48.7079 54.6044 48.7008C54.6165 48.7008 54.6472 48.703 54.673 48.7057Z" fill="#0B52F4"/>
</g>
<path d="M39 48.3508C39 47.7046 39.5239 47.1807 40.1702 47.1807H41.1064V51.8615H40.1702C39.5239 51.8615 39 51.3376 39 50.6913V48.3508Z" fill="#2A69F6"/>
<path d="M61.292 47.1807H62.2282C62.8745 47.1807 63.3984 47.7046 63.3984 48.3508V50.6913C63.3984 51.3376 62.8745 51.8615 62.2282 51.8615H61.292V47.1807Z" fill="#2A69F6"/>
<path d="M50.9465 37.0095C50.7117 37.039 50.4938 37.1316 50.3022 37.2838C50.2347 37.3373 50.1173 37.4594 50.0674 37.528C49.8238 37.8641 49.7496 38.2667 49.8529 38.6967C49.9628 39.1514 50.2705 39.6706 50.7326 40.1809C50.8588 40.3202 51.0321 40.4903 51.0591 40.5019C51.0875 40.5136 51.1165 40.5136 51.1468 40.5005C51.1752 40.4882 51.4288 40.2324 51.5408 40.1027C51.9652 39.6124 52.2411 39.1364 52.3464 38.7132C52.455 38.2783 52.3808 37.8627 52.1345 37.5273C52.088 37.4635 51.9773 37.3463 51.9146 37.2948C51.6434 37.0699 51.2926 36.9663 50.9465 37.0095ZM51.1758 37.5891C51.2595 37.5987 51.3303 37.6192 51.4019 37.6535C51.5624 37.7303 51.6778 37.8476 51.7527 38.0095C51.8822 38.2886 51.8215 38.6226 51.6022 38.8387C51.385 39.052 51.0693 39.1076 50.8007 38.9786C50.7191 38.9388 50.6638 38.9004 50.601 38.8387C50.3818 38.6226 50.3211 38.2886 50.4506 38.0095C50.5693 37.7543 50.8136 37.5918 51.0915 37.5829C51.1064 37.5829 51.1441 37.5856 51.1758 37.5891Z" fill="#0A4CE1"/>
</g>
<defs>
<filter id="filter0_d_1653_4097" x="0" y="0" width="102" height="108" filterUnits="userSpaceOnUse" color-interpolation-filters="sRGB">
<feFlood flood-opacity="0" result="BackgroundImageFix"/>
<feColorMatrix in="SourceAlpha" type="matrix" values="0 0 0 0 0 0 0 0 0 0 0 0 0 0 0 0 0 0 127 0" result="hardAlpha"/>
<feOffset dy="2"/>
<feGaussianBlur stdDeviation="16"/>
<feComposite in2="hardAlpha" operator="out"/>
<feColorMatrix type="matrix" values="0 0 0 0 0 0 0 0 0 0 0 0 0 0 0 0 0 0 0.32 0"/>
<feBlend mode="normal" in2="BackgroundImageFix" result="effect1_dropShadow_1653_4097"/>
<feBlend mode="normal" in="SourceGraphic" in2="effect1_dropShadow_1653_4097" result="shape"/>
</filter>
<filter id="filter1_d_1653_4097" x="41.2424" y="45.5425" width="19.8346" height="8.42544" filterUnits="userSpaceOnUse" color-interpolation-filters="sRGB">
<feFlood flood-opacity="0" result="BackgroundImageFix"/>
<feColorMatrix in="SourceAlpha" type="matrix" values="0 0 0 0 0 0 0 0 0 0 0 0 0 0 0 0 0 0 127 0" result="hardAlpha"/>
<feOffset dy="0.117018"/>
<feGaussianBlur stdDeviation="0.0585089"/>
<feComposite in2="hardAlpha" operator="out"/>
<feColorMatrix type="matrix" values="0 0 0 0 0 0 0 0 0 0 0 0 0 0 0 0 0 0 0.25 0"/>
<feBlend mode="normal" in2="BackgroundImageFix" result="effect1_dropShadow_1653_4097"/>
<feBlend mode="normal" in="SourceGraphic" in2="effect1_dropShadow_1653_4097" result="shape"/>
</filter>
<clipPath id="clip0_1653_4097">
<rect width="2.8085" height="2.8085" fill="white" transform="translate(46.3037 48.2341)"/>
</clipPath>
<clipPath id="clip1_1653_4097">
<rect width="2.8085" height="2.8085" fill="white" transform="translate(53.208 48.2341)"/>
</clipPath>
</defs>
</svg>
