<svg width="32" height="32" viewBox="0 0 32 32" fill="none" xmlns="http://www.w3.org/2000/svg">
<path d="M29.9662 25.9999H28V11.9999C28 11.4695 27.7893 10.9608 27.4142 10.5857C27.0391 10.2106 26.5304 9.9999 26 9.9999H20.5C20.3674 9.9999 20.2402 10.0526 20.1464 10.1463C20.0527 10.2401 20 10.3673 20 10.4999V25.9999H18V4.05115C18.0033 3.73963 17.9357 3.43143 17.8023 3.1499C17.6689 2.86836 17.4732 2.62087 17.23 2.42615C16.8985 2.1677 16.494 2.02026 16.0739 2.00478C15.6539 1.98929 15.2396 2.10655 14.89 2.3399L4.89 8.9999C4.61567 9.18293 4.39086 9.43095 4.23558 9.72188C4.0803 10.0128 3.99937 10.3376 4 10.6674V25.9999H2.03375C1.77533 25.9961 1.52506 26.0903 1.33327 26.2635C1.14148 26.4367 1.0224 26.6762 1 26.9337C0.990918 27.0704 1.01006 27.2076 1.05623 27.3367C1.1024 27.4658 1.17462 27.584 1.2684 27.684C1.36218 27.784 1.47552 27.8636 1.60137 27.918C1.72723 27.9723 1.86291 28.0002 2 27.9999H30C30.1371 28.0002 30.2728 27.9723 30.3986 27.918C30.5245 27.8636 30.6378 27.784 30.7316 27.684C30.8254 27.584 30.8976 27.4658 30.9438 27.3367C30.9899 27.2076 31.0091 27.0704 31 26.9337C30.9776 26.6762 30.8585 26.4367 30.6667 26.2635C30.4749 26.0903 30.2247 25.9961 29.9662 25.9999ZM9.5 22.9999C9.5003 23.137 9.47241 23.2727 9.41807 23.3985C9.36372 23.5244 9.28408 23.6377 9.18409 23.7315C9.08409 23.8253 8.96589 23.8975 8.83681 23.9437C8.70773 23.9898 8.57054 24.009 8.43375 23.9999C8.17606 23.9775 7.93644 23.8582 7.76317 23.6662C7.5899 23.4741 7.49586 23.2235 7.5 22.9649V21.0337C7.49648 20.7753 7.59076 20.5252 7.76394 20.3335C7.93712 20.1417 8.17639 20.0226 8.43375 19.9999C8.57054 19.9908 8.70773 20.01 8.83681 20.0561C8.96589 20.1023 9.08409 20.1745 9.18409 20.2683C9.28408 20.3621 9.36372 20.4754 9.41807 20.6013C9.47241 20.7271 9.5003 20.8628 9.5 20.9999V22.9999ZM9.5 15.9999C9.5003 16.137 9.47241 16.2727 9.41807 16.3985C9.36372 16.5244 9.28408 16.6377 9.18409 16.7315C9.08409 16.8253 8.96589 16.8975 8.83681 16.9437C8.70773 16.9898 8.57054 17.009 8.43375 16.9999C8.17617 16.9772 7.93672 16.8579 7.76351 16.6659C7.5903 16.4739 7.49616 16.2235 7.5 15.9649V14.0337C7.49648 13.7753 7.59076 13.5252 7.76394 13.3335C7.93712 13.1417 8.17639 13.0226 8.43375 12.9999C8.57054 12.9908 8.70773 13.01 8.83681 13.0561C8.96589 13.1023 9.08409 13.1745 9.18409 13.2683C9.28408 13.3621 9.36372 13.4754 9.41807 13.6013C9.47241 13.7271 9.5003 13.8628 9.5 13.9999V15.9999ZM14.5 22.9999C14.5003 23.137 14.4724 23.2727 14.4181 23.3985C14.3637 23.5244 14.2841 23.6377 14.1841 23.7315C14.0841 23.8253 13.9659 23.8975 13.8368 23.9437C13.7077 23.9898 13.5705 24.009 13.4338 23.9999C13.1765 23.9775 12.9372 23.8586 12.764 23.6671C12.5908 23.4756 12.4965 23.2256 12.5 22.9674V21.0337C12.4968 20.7755 12.5912 20.5257 12.7644 20.3343C12.9375 20.1428 13.1766 20.0238 13.4338 20.0012C13.5705 19.9921 13.7077 20.0112 13.8368 20.0574C13.9659 20.1035 14.0841 20.1758 14.1841 20.2696C14.2841 20.3633 14.3637 20.4767 14.4181 20.6025C14.4724 20.7284 14.5003 20.8641 14.5 21.0012V22.9999ZM14.5 15.9999C14.5003 16.137 14.4724 16.2727 14.4181 16.3985C14.3637 16.5244 14.2841 16.6377 14.1841 16.7315C14.0841 16.8253 13.9659 16.8975 13.8368 16.9437C13.7077 16.9898 13.5705 17.009 13.4338 16.9999C13.1766 16.9772 12.9375 16.8582 12.7644 16.6668C12.5912 16.4753 12.4968 16.2255 12.5 15.9674V14.0337C12.4968 13.7755 12.5912 13.5257 12.7644 13.3343C12.9375 13.1428 13.1766 13.0238 13.4338 13.0012C13.5705 12.9921 13.7077 13.0112 13.8368 13.0574C13.9659 13.1036 14.0841 13.1758 14.1841 13.2696C14.2841 13.3633 14.3637 13.4767 14.4181 13.6025C14.4724 13.7284 14.5003 13.8641 14.5 14.0012V15.9999Z" fill="#8E8E93"/>
</svg>
