<svg width="105" height="118" viewBox="0 0 105 118" fill="none" xmlns="http://www.w3.org/2000/svg">
<path d="M43.8349 12.052C38.4804 13.6955 33.9222 16.4346 30.0505 20.3255C27.3732 23.0224 25.3138 25.8879 23.6663 29.1748L22.8151 30.8885H29.7484H36.6956L36.7505 30.5655C38.2882 22.9943 41.1714 16.4767 44.6175 12.7684C45.2627 12.0661 45.7295 11.5042 45.6746 11.5182C45.606 11.5182 44.7822 11.757 43.8349 12.052Z" fill="#2A69F6"/>
<path d="M61.4635 12.7684C64.8959 16.4627 67.7653 22.9803 69.3167 30.5655L69.3717 30.8885H76.305H83.2384L82.5382 29.4698C79.9571 24.1883 75.9893 19.581 71.2663 16.3784C68.3694 14.3978 65.294 12.937 62.0539 11.9818C61.1614 11.7149 60.3926 11.5042 60.3514 11.5042C60.3102 11.5042 60.8045 12.0801 61.4635 12.7684Z" fill="#2A69F6"/>
<path d="M51.3861 13.2319C47.5693 14.5523 43.8212 20.5362 41.7755 28.5147C41.4734 29.7086 41.2263 30.72 41.2263 30.7762C41.2263 30.8464 46.5396 30.8885 53.0337 30.8885C59.5277 30.8885 64.841 30.8464 64.841 30.7762C64.841 30.72 64.5939 29.7086 64.2918 28.5147C61.9166 19.2579 57.3173 12.8948 52.9787 12.9089C52.5943 12.9089 51.8804 13.0634 51.3861 13.2319Z" fill="#2A69F6"/>
<path d="M23.5289 59.2767C25.0941 62.4793 27.0162 65.2465 29.4738 67.817C31.3822 69.8117 32.7002 70.9354 34.842 72.3962C37.6154 74.2925 40.7457 75.7815 43.8074 76.6945C44.6174 76.9193 45.4 77.1581 45.551 77.2002C45.702 77.2423 45.3039 76.7226 44.6311 75.9922C41.1438 72.2558 38.398 66.0331 36.7504 58.167L36.6955 57.858H29.7621H22.8287L23.5289 59.2767Z" fill="#2A69F6"/>
<path d="M41.2263 57.9562C41.2263 58.0265 41.4734 59.0378 41.7755 60.2318C44.137 69.4464 48.7363 75.8376 53.0337 75.8376C57.4683 75.8376 62.0814 69.2357 64.484 59.4452C64.6763 58.6586 64.841 57.9843 64.841 57.9422C64.841 57.9 59.5277 57.8579 53.0337 57.8579C46.5396 57.8579 41.2263 57.9 41.2263 57.9562Z" fill="#2A69F6"/>
<path d="M69.3167 58.167C67.6692 66.005 64.9096 72.2558 61.4635 75.9781C60.8045 76.6664 60.3102 77.2423 60.3514 77.2423C60.3926 77.2423 61.1752 77.0176 62.0813 76.7507C65.9393 75.6129 69.66 73.7026 73.0786 71.0758C74.3555 70.1066 77.1975 67.2832 78.3919 65.8364C79.6688 64.2632 81.4261 61.5241 82.4009 59.5576L83.2522 57.858H76.3188H69.3717L69.3167 58.167Z" fill="#2A69F6"/>
<g filter="url(#filter0_d_1354_2562)">
<rect x="20.1445" y="32.0474" width="64.711" height="24.6518" rx="5.1358" stroke="#0B52F4" stroke-width="4.10864" shape-rendering="crispEdges"/>
</g>
<g clip-path="url(#clip0_1354_2562)">
<path d="M39.9366 39.4718C39.2664 39.5546 38.6443 39.8146 38.0974 40.2422C37.9048 40.3924 37.5696 40.7352 37.4271 40.9278C36.7319 41.8715 36.52 43.002 36.8147 44.2096C37.1286 45.4865 38.0068 46.9444 39.3261 48.3773C39.6862 48.7682 40.1812 49.2459 40.2582 49.2786C40.3391 49.3114 40.4219 49.3114 40.5086 49.2748C40.5895 49.2401 41.3136 48.5217 41.6333 48.1577C42.8448 46.7807 43.6325 45.4441 43.9329 44.2558C44.243 43.0348 44.0311 41.8677 43.3282 40.9259C43.1953 40.7468 42.8794 40.4174 42.7003 40.273C41.9261 39.6413 40.9246 39.3505 39.9366 39.4718ZM40.5914 41.0992C40.8302 41.1262 41.0325 41.184 41.2366 41.2803C41.695 41.496 42.0243 41.8253 42.2381 42.2798C42.6079 43.0637 42.4345 44.0016 41.8086 44.6083C41.1885 45.2072 40.2871 45.3632 39.5206 45.0011C39.2876 44.8894 39.1296 44.7816 38.9505 44.6083C38.3246 44.0016 38.1513 43.0637 38.5211 42.2798C38.86 41.5634 39.5572 41.1069 40.3507 41.0819C40.3931 41.0819 40.5009 41.0896 40.5914 41.0992Z" fill="#0B52F4"/>
</g>
<g clip-path="url(#clip1_1354_2562)">
<path d="M64.1776 39.4718C63.5074 39.5546 62.8853 39.8146 62.3383 40.2422C62.1457 40.3924 61.8106 40.7352 61.6681 40.9278C60.9728 41.8715 60.761 43.002 61.0557 44.2096C61.3696 45.4865 62.2478 46.9444 63.5671 48.3773C63.9272 48.7683 64.4222 49.2459 64.4992 49.2786C64.5801 49.3114 64.6629 49.3114 64.7496 49.2748C64.8305 49.2401 65.5546 48.5217 65.8743 48.1577C67.0857 46.7807 67.8734 45.4441 68.1739 44.2558C68.4839 43.0348 68.2721 41.8677 67.5691 40.9259C67.4362 40.7468 67.1204 40.4174 66.9413 40.273C66.1671 39.6413 65.1656 39.3505 64.1776 39.4718ZM64.8324 41.0992C65.0712 41.1262 65.2734 41.184 65.4776 41.2803C65.9359 41.496 66.2653 41.8253 66.4791 42.2798C66.8488 43.0637 66.6755 44.0016 66.0496 44.6083C65.4294 45.2072 64.5281 45.3632 63.7616 45.0011C63.5285 44.8894 63.3706 44.7816 63.1915 44.6083C62.5656 44.0016 62.3922 43.0637 62.762 42.2798C63.101 41.5634 63.7982 41.1069 64.5917 41.0819C64.634 41.0819 64.7419 41.0896 64.8324 41.0992Z" fill="#0B52F4"/>
</g>
<path d="M9.66748 39.8538C9.66748 37.5846 11.507 35.7451 13.7761 35.7451H17.063V52.1797H13.7761C11.507 52.1797 9.66748 50.3402 9.66748 48.0711V39.8538Z" fill="#2A69F6"/>
<path d="M87.937 35.7451H91.2239C93.4931 35.7451 95.3326 37.5846 95.3326 39.8538V48.0711C95.3326 50.3402 93.4931 52.1797 91.2239 52.1797H87.937V35.7451Z" fill="#2A69F6"/>
<path d="M52.3067 0.0337877C51.4687 0.137335 50.6909 0.462427 50.007 0.997024C49.7662 1.18485 49.3471 1.61349 49.1689 1.8543C48.2996 3.03427 48.0347 4.44782 48.4032 5.95769C48.7957 7.55426 49.8938 9.37718 51.5433 11.1688C51.9936 11.6576 52.6125 12.2548 52.7088 12.2958C52.81 12.3367 52.9135 12.3367 53.0219 12.291C53.123 12.2476 54.0285 11.3494 54.4282 10.8943C55.9429 9.17249 56.9278 7.50128 57.3035 6.01548C57.6912 4.48876 57.4263 3.02945 56.5473 1.8519C56.3812 1.62794 55.9863 1.21616 55.7623 1.03555C54.7942 0.245699 53.542 -0.117923 52.3067 0.0337877ZM53.1254 2.06862C53.424 2.10234 53.6769 2.17458 53.9321 2.29498C54.5053 2.56469 54.9171 2.97647 55.1844 3.54478C55.6467 4.52488 55.43 5.69762 54.6474 6.45617C53.8719 7.20508 52.745 7.40014 51.7865 6.94742C51.4952 6.80775 51.2977 6.67289 51.0737 6.45617C50.2911 5.69762 50.0744 4.52488 50.5367 3.54478C50.9606 2.64897 51.8323 2.07826 52.8244 2.04695C52.8774 2.04695 53.0123 2.05658 53.1254 2.06862Z" fill="#0A4CE1"/>
<path d="M18.0421 91.6552H11.3244V110.529H7.17984V91.6552H0.462222V88.2501H18.0421V91.6552ZM20.8469 97.4637C21.34 96.5188 21.9254 95.7792 22.6034 95.2451C23.2813 94.7007 24.0825 94.4285 25.0069 94.4285C25.7362 94.4285 26.3217 94.5877 26.7634 94.9061L26.5168 97.7565C26.4655 97.9414 26.3884 98.0749 26.2857 98.1571C26.1933 98.229 26.0649 98.2649 25.9005 98.2649C25.7465 98.2649 25.5154 98.2393 25.2072 98.1879C24.9093 98.1365 24.6166 98.1109 24.329 98.1109C23.9079 98.1109 23.5329 98.1725 23.2043 98.2957C22.8756 98.419 22.5777 98.5988 22.3106 98.835C22.0538 99.061 21.8227 99.3383 21.6173 99.667C21.4221 99.9957 21.2372 100.371 21.0626 100.792V110.529H17.257V94.7212H19.4911C19.8814 94.7212 20.1536 94.7931 20.3077 94.9369C20.4617 95.0705 20.5645 95.317 20.6158 95.6765L20.8469 97.4637ZM42.3725 94.7212V110.529H40.046C39.5427 110.529 39.2242 110.298 39.0907 109.836L38.8288 108.572C38.1817 109.23 37.4678 109.764 36.6872 110.175C35.9065 110.575 34.9872 110.776 33.9292 110.776C33.0664 110.776 32.3012 110.632 31.6335 110.344C30.9762 110.046 30.4215 109.63 29.9695 109.096C29.5176 108.562 29.1735 107.93 28.9372 107.201C28.7113 106.462 28.5983 105.65 28.5983 104.767V94.7212H32.4039V104.767C32.4039 105.732 32.6247 106.482 33.0664 107.016C33.5184 107.54 34.1912 107.802 35.0848 107.802C35.7422 107.802 36.3585 107.658 36.9337 107.371C37.5089 107.073 38.0533 106.667 38.5669 106.154V94.7212H42.3725ZM56.3301 100.807C56.3301 100.314 56.2582 99.8519 56.1144 99.4205C55.9809 98.9788 55.7755 98.5936 55.4981 98.2649C55.2208 97.9362 54.8664 97.6794 54.435 97.4946C54.0139 97.2994 53.5209 97.2018 52.9559 97.2018C51.8569 97.2018 50.9889 97.5151 50.3521 98.1417C49.7255 98.7682 49.3249 99.6567 49.1503 100.807H56.3301ZM49.0733 103.103C49.1349 103.914 49.2787 104.618 49.5047 105.214C49.7306 105.799 50.0285 106.287 50.3983 106.677C50.7681 107.057 51.2046 107.345 51.7079 107.54C52.2215 107.725 52.7864 107.818 53.4027 107.818C54.019 107.818 54.548 107.746 54.9897 107.602C55.4416 107.458 55.832 107.299 56.1607 107.124C56.4996 106.95 56.7924 106.79 57.0389 106.647C57.2957 106.503 57.5422 106.431 57.7784 106.431C58.0969 106.431 58.3331 106.549 58.4872 106.785L59.5811 108.172C59.16 108.665 58.6875 109.081 58.1636 109.42C57.6398 109.749 57.0902 110.016 56.515 110.221C55.9501 110.416 55.3697 110.555 54.774 110.637C54.1885 110.719 53.6184 110.76 53.0638 110.76C51.9647 110.76 50.9427 110.581 49.9977 110.221C49.0527 109.851 48.231 109.312 47.5325 108.603C46.8341 107.884 46.2845 107.001 45.8839 105.953C45.4833 104.895 45.283 103.673 45.283 102.286C45.283 101.208 45.4577 100.196 45.8069 99.251C46.1561 98.2957 46.6543 97.4689 47.3014 96.7704C47.9588 96.0617 48.7548 95.5019 49.6896 95.091C50.6345 94.6801 51.6977 94.4747 52.8789 94.4747C53.8752 94.4747 54.7945 94.6339 55.6368 94.9523C56.4791 95.2708 57.2032 95.7381 57.8093 96.3544C58.4153 96.9604 58.8878 97.7103 59.2267 98.6039C59.576 99.4872 59.7506 100.499 59.7506 101.639C59.7506 102.214 59.689 102.605 59.5657 102.81C59.4424 103.005 59.2062 103.103 58.857 103.103H49.0733Z" fill="#031A4E"/>
<path d="M81.5128 99.3589V108.372C80.3829 109.204 79.176 109.815 77.8921 110.206C76.6184 110.586 75.2523 110.776 73.7937 110.776C71.9756 110.776 70.327 110.493 68.8479 109.928C67.3791 109.363 66.1208 108.578 65.0731 107.571C64.0357 106.564 63.2345 105.363 62.6696 103.966C62.1046 102.569 61.8222 101.043 61.8222 99.3897C61.8222 97.7154 62.0944 96.1798 62.6387 94.7829C63.1831 93.3859 63.9535 92.1841 64.9499 91.1775C65.9565 90.1709 67.1737 89.3903 68.6014 88.8356C70.0292 88.2809 71.6315 88.0036 73.4085 88.0036C74.3124 88.0036 75.1547 88.0755 75.9353 88.2193C76.7262 88.3631 77.4555 88.5634 78.1232 88.8202C78.8011 89.0667 79.4174 89.3697 79.9721 89.7292C80.5267 90.0887 81.0352 90.4842 81.4974 90.9156L80.311 92.7953C80.1261 93.0932 79.8848 93.2781 79.5869 93.35C79.289 93.4116 78.9654 93.3346 78.6162 93.1189C78.2773 92.9237 77.9383 92.7285 77.5993 92.5334C77.2604 92.3382 76.8803 92.1687 76.4592 92.0249C76.0483 91.8811 75.581 91.763 75.0571 91.6706C74.5435 91.5781 73.9478 91.5319 73.2698 91.5319C72.1708 91.5319 71.1744 91.7168 70.2808 92.0866C69.3975 92.4563 68.6425 92.9853 68.0159 93.6735C67.3894 94.3617 66.9066 95.1886 66.5676 96.1541C66.2287 97.1196 66.0592 98.1982 66.0592 99.3897C66.0592 100.663 66.2389 101.803 66.5984 102.81C66.9682 103.806 67.4818 104.654 68.1392 105.352C68.8068 106.041 69.608 106.57 70.5427 106.939C71.4775 107.299 72.52 107.479 73.6704 107.479C74.4922 107.479 75.2266 107.391 75.8737 107.217C76.5208 107.042 77.1525 106.806 77.7688 106.508V102.471H74.9647C74.6976 102.471 74.487 102.399 74.333 102.255C74.1892 102.101 74.1173 101.916 74.1173 101.701V99.3589H81.5128ZM88.7892 94.7212V110.529H84.9681V94.7212H88.7892ZM89.313 90.1144C89.313 90.4431 89.2463 90.7513 89.1127 91.0389C88.9792 91.3265 88.7995 91.5781 88.5735 91.7938C88.3578 92.0095 88.101 92.1841 87.8031 92.3177C87.5052 92.4409 87.1868 92.5026 86.8478 92.5026C86.5192 92.5026 86.2059 92.4409 85.908 92.3177C85.6204 92.1841 85.3687 92.0095 85.153 91.7938C84.9373 91.5781 84.7627 91.3265 84.6292 91.0389C84.5059 90.7513 84.4443 90.4431 84.4443 90.1144C84.4443 89.7755 84.5059 89.457 84.6292 89.1592C84.7627 88.8613 84.9373 88.6045 85.153 88.3888C85.3687 88.1731 85.6204 88.0036 85.908 87.8803C86.2059 87.7468 86.5192 87.6801 86.8478 87.6801C87.1868 87.6801 87.5052 87.7468 87.8031 87.8803C88.101 88.0036 88.3578 88.1731 88.5735 88.3888C88.7995 88.6045 88.9792 88.8613 89.1127 89.1592C89.2463 89.457 89.313 89.7755 89.313 90.1144ZM102.314 97.8027C102.211 97.9671 102.103 98.0852 101.99 98.1571C101.877 98.2187 101.734 98.2495 101.559 98.2495C101.374 98.2495 101.174 98.1982 100.958 98.0954C100.753 97.9927 100.511 97.8797 100.234 97.7565C99.9567 97.623 99.6382 97.5048 99.2787 97.4021C98.9295 97.2994 98.5135 97.248 98.0307 97.248C97.2809 97.248 96.6903 97.4073 96.2589 97.7257C95.8377 98.0441 95.6272 98.4601 95.6272 98.9737C95.6272 99.3126 95.735 99.6002 95.9507 99.8365C96.1767 100.062 96.4694 100.263 96.829 100.437C97.1987 100.612 97.6147 100.771 98.0769 100.915C98.5392 101.049 99.0065 101.197 99.479 101.362C99.9618 101.526 100.434 101.716 100.897 101.932C101.359 102.137 101.77 102.404 102.129 102.733C102.499 103.051 102.792 103.437 103.007 103.889C103.233 104.341 103.346 104.885 103.346 105.522C103.346 106.282 103.208 106.986 102.93 107.633C102.663 108.269 102.263 108.824 101.729 109.297C101.194 109.759 100.532 110.123 99.7409 110.391C98.9603 110.647 98.0564 110.776 97.0292 110.776C96.4849 110.776 95.9507 110.724 95.4269 110.622C94.9133 110.529 94.4151 110.396 93.9324 110.221C93.4599 110.046 93.0182 109.841 92.6073 109.605C92.2067 109.369 91.8524 109.112 91.5442 108.834L92.4224 107.386C92.5354 107.211 92.669 107.078 92.823 106.986C92.9771 106.893 93.1723 106.847 93.4085 106.847C93.6448 106.847 93.8656 106.914 94.071 107.047C94.2867 107.181 94.5332 107.324 94.8106 107.479C95.0879 107.633 95.4115 107.776 95.7812 107.91C96.1613 108.043 96.6389 108.11 97.2141 108.11C97.6661 108.11 98.0513 108.059 98.3697 107.956C98.6984 107.843 98.9654 107.699 99.1709 107.525C99.3866 107.35 99.5407 107.15 99.6331 106.924C99.7358 106.688 99.7872 106.446 99.7872 106.2C99.7872 105.83 99.6742 105.527 99.4482 105.291C99.2325 105.054 98.9398 104.849 98.57 104.674C98.2105 104.5 97.7945 104.346 97.322 104.212C96.8598 104.068 96.3821 103.914 95.8891 103.75C95.4063 103.586 94.9287 103.396 94.4562 103.18C93.994 102.954 93.578 102.671 93.2082 102.332C92.8487 101.994 92.556 101.578 92.33 101.084C92.1143 100.591 92.0064 99.9957 92.0064 99.2972C92.0064 98.6501 92.1348 98.0338 92.3916 97.4483C92.6484 96.8629 93.0233 96.3544 93.5164 95.923C94.0197 95.4813 94.6411 95.1321 95.3807 94.8753C96.1305 94.6082 96.9933 94.4747 97.9691 94.4747C99.0579 94.4747 100.049 94.6545 100.943 95.014C101.836 95.3735 102.581 95.846 103.177 96.4315L102.314 97.8027Z" fill="#2A69F6"/>
<defs>
<filter id="filter0_d_1354_2562" x="17.6793" y="29.993" width="69.6414" height="29.5822" filterUnits="userSpaceOnUse" color-interpolation-filters="sRGB">
<feFlood flood-opacity="0" result="BackgroundImageFix"/>
<feColorMatrix in="SourceAlpha" type="matrix" values="0 0 0 0 0 0 0 0 0 0 0 0 0 0 0 0 0 0 127 0" result="hardAlpha"/>
<feOffset dy="0.410864"/>
<feGaussianBlur stdDeviation="0.205432"/>
<feComposite in2="hardAlpha" operator="out"/>
<feColorMatrix type="matrix" values="0 0 0 0 0 0 0 0 0 0 0 0 0 0 0 0 0 0 0.25 0"/>
<feBlend mode="normal" in2="BackgroundImageFix" result="effect1_dropShadow_1354_2562"/>
<feBlend mode="normal" in="SourceGraphic" in2="effect1_dropShadow_1354_2562" result="shape"/>
</filter>
<clipPath id="clip0_1354_2562">
<rect width="9.86073" height="9.86073" fill="white" transform="translate(35.4492 39.4429)"/>
</clipPath>
<clipPath id="clip1_1354_2562">
<rect width="9.86073" height="9.86073" fill="white" transform="translate(59.6902 39.4429)"/>
</clipPath>
</defs>
</svg>
