<svg width="250" height="200" viewBox="0 0 250 200" fill="none" xmlns="http://www.w3.org/2000/svg">
<path fill-rule="evenodd" clip-rule="evenodd" d="M63 134H154C154.515 134 155.017 133.944 155.5 133.839C155.983 133.944 156.485 134 157 134H209C212.866 134 216 130.866 216 127C216 123.134 212.866 120 209 120H203C199.134 120 196 116.866 196 113C196 109.134 199.134 106 203 106H222C225.866 106 229 102.866 229 99C229 95.134 225.866 92 222 92H200C203.866 92 207 88.866 207 85C207 81.134 203.866 78 200 78H136C139.866 78 143 74.866 143 71C143 67.134 139.866 64 136 64H79C75.134 64 72 67.134 72 71C72 74.866 75.134 78 79 78H39C35.134 78 32 81.134 32 85C32 88.866 35.134 92 39 92H64C67.866 92 71 95.134 71 99C71 102.866 67.866 106 64 106H24C20.134 106 17 109.134 17 113C17 116.866 20.134 120 24 120H63C59.134 120 56 123.134 56 127C56 130.866 59.134 134 63 134ZM226 134C229.866 134 233 130.866 233 127C233 123.134 229.866 120 226 120C222.134 120 219 123.134 219 127C219 130.866 222.134 134 226 134Z" fill="#1C1C1D"/>
<path fill-rule="evenodd" clip-rule="evenodd" d="M93.1488 118.547L89.8964 119.009C88.1483 119.258 86.5343 118.042 86.2914 116.295L77.4956 53.0007C77.2528 51.2529 78.473 49.6346 80.2211 49.3861L142.734 40.501C144.482 40.2525 146.096 41.468 146.339 43.2158L147.095 48.6548C147.136 48.9491 149.836 68.4846 155.196 107.261C155.465 109.209 154.122 111.008 152.197 111.28C152.176 111.283 152.156 111.285 152.135 111.288L93.1488 118.547Z" fill="black"/>
<path d="M90.9254 122.428L87.3437 122.932C85.4186 123.202 83.6386 121.861 83.3681 119.936L73.5703 50.2211C73.2997 48.2959 74.641 46.516 76.5661 46.2454L145.41 36.5701C147.335 36.2996 149.115 37.6409 149.385 39.566C149.385 39.566 150.012 44.0235 150.227 45.5568" stroke="#3E88F7" stroke-width="2.5" stroke-linecap="round"/>
<path d="M150.96 49.6143L151.4 52.3602" stroke="#3E88F7" stroke-width="2.5" stroke-linecap="round"/>
<path d="M102.942 53.723C103.101 52.2125 104.454 51.1168 105.965 51.2755L174.149 58.442C175.659 58.6008 176.755 59.9539 176.597 61.4644L169.338 130.524C169.179 132.034 167.826 133.13 166.316 132.971L98.1312 125.805C96.6208 125.646 95.525 124.293 95.6838 122.783L102.942 53.723Z" stroke="#3E88F7" stroke-width="2.5"/>
<path fill-rule="evenodd" clip-rule="evenodd" d="M111.572 96.6927L119.854 91.1074C121.487 90.0055 123.68 90.2576 125.021 91.7013L130.978 98.1144C131.336 98.4999 131.931 98.542 132.34 98.2108L145.337 87.6797C147.185 86.1825 149.923 86.6186 151.214 88.6158L159.707 101.752L160.969 103.857L160.375 110.884C160.328 111.444 159.827 111.856 159.268 111.794L109.38 106.251C108.839 106.191 108.445 105.708 108.495 105.165L109.149 98.0677L111.572 96.6927Z" fill="black"/>
<path d="M110.096 61.4331C110.197 60.4719 111.058 59.7746 112.019 59.8756L166.439 65.5954C167.4 65.6964 168.098 66.5575 167.997 67.5187L163.197 113.187C163.096 114.148 162.235 114.846 161.273 114.745L106.853 109.025C105.892 108.924 105.195 108.063 105.296 107.102L110.096 61.4331Z" stroke="#3E88F7" stroke-width="2.5"/>
<circle cx="122.389" cy="75.6355" r="5.28" transform="rotate(6 122.389 75.6355)" fill="#1C1C1D" stroke="#3E88F7" stroke-width="2.5"/>
<path d="M109.802 98.0539C113.266 95.6617 120.194 90.8774 120.194 90.8774C121.632 89.9078 123.561 90.1296 124.741 91.4001L131.054 98.1963C131.369 98.5355 131.893 98.5726 132.253 98.2811L145.752 87.343C147.262 86.1192 149.479 86.3515 150.703 87.8619C150.782 87.9595 150.856 88.0613 150.924 88.1668C150.924 88.1668 158.816 100.69 160.66 103.616" stroke="#3E88F7" stroke-width="2.5" stroke-linecap="round"/>
</svg>
