<svg width="220" height="187" viewBox="0 0 220 187" fill="none" xmlns="http://www.w3.org/2000/svg">
<path fill-rule="evenodd" clip-rule="evenodd" d="M55.44 125.29H135.52C135.973 125.29 136.415 125.238 136.84 125.139C137.265 125.238 137.707 125.29 138.16 125.29H183.92C187.322 125.29 190.08 122.36 190.08 118.745C190.08 115.13 187.322 112.2 183.92 112.2H178.64C175.238 112.2 172.48 109.27 172.48 105.655C172.48 102.04 175.238 99.1098 178.64 99.1098H195.36C198.762 99.1098 201.52 96.1795 201.52 92.5648C201.52 88.9501 198.762 86.0198 195.36 86.0198H176C179.402 86.0198 182.16 83.0895 182.16 79.4748C182.16 75.8601 179.402 72.9298 176 72.9298H119.68C123.082 72.9298 125.84 69.9995 125.84 66.3848C125.84 62.7701 123.082 59.8398 119.68 59.8398H69.52C66.1179 59.8398 63.36 62.7701 63.36 66.3848C63.36 69.9995 66.1179 72.9298 69.52 72.9298H34.32C30.9179 72.9298 28.16 75.8601 28.16 79.4748C28.16 83.0895 30.9179 86.0198 34.32 86.0198H56.32C59.722 86.0198 62.48 88.9501 62.48 92.5648C62.48 96.1795 59.722 99.1098 56.32 99.1098H21.12C17.7179 99.1098 14.96 102.04 14.96 105.655C14.96 109.27 17.7179 112.2 21.12 112.2H55.44C52.0379 112.2 49.28 115.13 49.28 118.745C49.28 122.36 52.0379 125.29 55.44 125.29ZM198.88 125.29C202.282 125.29 205.04 122.36 205.04 118.745C205.04 115.13 202.282 112.2 198.88 112.2C195.478 112.2 192.72 115.13 192.72 118.745C192.72 122.36 195.478 125.29 198.88 125.29Z" fill="#1C1C1D"/>
<path fill-rule="evenodd" clip-rule="evenodd" d="M148.348 117.88C146.08 119.68 143.869 121.372 141.367 122.834L141.512 136.002C141.523 137.035 140.744 137.882 139.772 137.894C139.377 137.899 138.992 137.762 138.678 137.506L127.535 128.397C123.358 129.419 118.953 129.965 114.4 129.965C87.6694 129.965 66 111.127 66 87.8899C66 64.6526 87.6694 45.8149 114.4 45.8149C141.131 45.8149 162.8 64.6526 162.8 87.8899C162.8 94.3216 161.14 100.416 158.172 105.868C157.625 106.873 157.033 107.856 156.399 108.816C156.399 108.816 155.159 110.797 152.68 113.602C150.201 116.407 148.348 117.88 148.348 117.88Z" fill="#1C1C1D"/>
<path fill-rule="evenodd" clip-rule="evenodd" d="M148.348 117.88C146.08 119.68 143.869 121.372 141.367 122.834L141.512 136.002C141.523 137.035 140.744 137.882 139.772 137.894C139.377 137.899 138.992 137.762 138.678 137.506L127.535 128.397C123.358 129.419 118.953 129.965 114.4 129.965C87.6694 129.965 66 111.127 66 87.8899C66 64.6526 87.6694 45.8149 114.4 45.8149C141.131 45.8149 162.8 64.6526 162.8 87.8899C162.8 94.3216 161.14 100.416 158.172 105.868C157.625 106.873 157.033 107.856 156.399 108.816C156.399 108.816 155.159 110.797 152.68 113.602C150.201 116.407 148.348 117.88 148.348 117.88Z" stroke="#3E88F7" stroke-width="2.5" stroke-linecap="round"/>
<path fill-rule="evenodd" clip-rule="evenodd" d="M143.31 76.2864C147.979 76.2864 152.474 75.695 156.685 74.6009C158.365 78.6678 159.28 83.05 159.28 87.6166C159.28 93.5406 157.741 99.1541 154.989 104.175C154.481 105.101 153.932 106.007 153.344 106.891C152.416 108.287 151.754 109.272 151.171 110.063C149.792 111.932 148.856 112.709 145.879 115.239C143.893 116.927 141.726 118.456 139.406 119.803L139.54 131.931C139.55 132.883 139.823 134.629 138.921 134.64C138.555 134.645 137.203 133.553 136.913 133.317L127.928 124.792C124.055 125.732 118.622 126.371 114.4 126.371C89.6135 126.371 69.52 109.02 69.52 87.6166C69.52 70.0888 82.9957 55.2788 101.489 50.4902C106.332 65.3329 123.221 76.2864 143.31 76.2864ZM97.0561 82.4189C94.1477 82.4189 91.7899 84.9401 91.7899 88.0502C91.7899 91.1603 94.1477 93.6816 97.0561 93.6816C99.9645 93.6816 102.322 91.1603 102.322 88.0502C102.322 84.9401 99.9645 82.4189 97.0561 82.4189ZM113.732 82.4189C110.824 82.4189 108.466 84.9401 108.466 88.0502C108.466 91.1603 110.824 93.6816 113.732 93.6816C116.641 93.6816 118.998 91.1603 118.998 88.0502C118.998 84.9401 116.641 82.4189 113.732 82.4189ZM130.408 82.4189C127.5 82.4189 125.142 84.9401 125.142 88.0502C125.142 91.1603 127.5 93.6816 130.408 93.6816C133.317 93.6816 135.675 91.1603 135.675 88.0502C135.675 84.9401 133.317 82.4189 130.408 82.4189Z" fill="black"/>
<path fill-rule="evenodd" clip-rule="evenodd" d="M96.8 82.2798C99.7161 82.2798 102.08 84.7915 102.08 87.8898C102.08 90.9881 99.7161 93.4998 96.8 93.4998C93.884 93.4998 91.52 90.9881 91.52 87.8898C91.52 84.7915 93.884 82.2798 96.8 82.2798ZM113.52 82.2798C116.436 82.2798 118.8 84.7915 118.8 87.8898C118.8 90.9881 116.436 93.4998 113.52 93.4998C110.604 93.4998 108.24 90.9881 108.24 87.8898C108.24 84.7915 110.604 82.2798 113.52 82.2798ZM130.24 82.2798C133.156 82.2798 135.52 84.7915 135.52 87.8898C135.52 90.9881 133.156 93.4998 130.24 93.4998C127.324 93.4998 124.96 90.9881 124.96 87.8898C124.96 84.7915 127.324 82.2798 130.24 82.2798Z" fill="#1C1C1D" stroke="#3E88F7" stroke-width="2.5"/>
<path d="M78.9028 74.1558C78.1037 75.5881 77.4113 77.0746 76.8345 78.6073" stroke="#3E88F7" stroke-width="2.5" stroke-linecap="round"/>
<path d="M95.0595 58.9736C89.2932 61.8977 84.4248 66.034 80.9067 70.9856" stroke="#3E88F7" stroke-width="2.5" stroke-linecap="round"/>
</svg>
