<svg width="220" height="187" viewBox="0 0 220 187" fill="none" xmlns="http://www.w3.org/2000/svg">
<path fill-rule="evenodd" clip-rule="evenodd" d="M55.44 125.29H135.52C135.973 125.29 136.415 125.238 136.84 125.139C137.265 125.238 137.707 125.29 138.16 125.29H183.92C187.322 125.29 190.08 122.36 190.08 118.745C190.08 115.13 187.322 112.2 183.92 112.2H178.64C175.238 112.2 172.48 109.27 172.48 105.655C172.48 102.04 175.238 99.1101 178.64 99.1101H195.36C198.762 99.1101 201.52 96.1798 201.52 92.5651C201.52 88.9504 198.762 86.0201 195.36 86.0201H176C179.402 86.0201 182.16 83.0898 182.16 79.4751C182.16 75.8604 179.402 72.9301 176 72.9301H119.68C123.082 72.9301 125.84 69.9998 125.84 66.3851C125.84 62.7704 123.082 59.8401 119.68 59.8401H69.52C66.1179 59.8401 63.36 62.7704 63.36 66.3851C63.36 69.9998 66.1179 72.9301 69.52 72.9301H34.32C30.9179 72.9301 28.16 75.8604 28.16 79.4751C28.16 83.0898 30.9179 86.0201 34.32 86.0201H56.32C59.722 86.0201 62.48 88.9504 62.48 92.5651C62.48 96.1798 59.722 99.1101 56.32 99.1101H21.12C17.7179 99.1101 14.96 102.04 14.96 105.655C14.96 109.27 17.7179 112.2 21.12 112.2H55.44C52.0379 112.2 49.28 115.13 49.28 118.745C49.28 122.36 52.0379 125.29 55.44 125.29ZM198.88 125.29C202.282 125.29 205.04 122.36 205.04 118.745C205.04 115.13 202.282 112.2 198.88 112.2C195.478 112.2 192.72 115.13 192.72 118.745C192.72 122.36 195.478 125.29 198.88 125.29Z" fill="white"/>
<path fill-rule="evenodd" clip-rule="evenodd" d="M148.348 117.88C146.08 119.68 143.869 121.372 141.367 122.834L141.512 136.002C141.523 137.035 140.744 137.882 139.772 137.894C139.377 137.899 138.992 137.762 138.678 137.506L127.535 128.397C123.358 129.419 118.953 129.965 114.4 129.965C87.6694 129.965 66 111.127 66 87.8899C66 64.6526 87.6694 45.8149 114.4 45.8149C141.131 45.8149 162.8 64.6526 162.8 87.8899C162.8 94.3216 161.14 100.416 158.172 105.868C157.625 106.873 157.033 107.856 156.399 108.816C156.399 108.816 155.159 110.797 152.68 113.602C150.201 116.407 148.348 117.88 148.348 117.88Z" fill="white"/>
<path fill-rule="evenodd" clip-rule="evenodd" d="M148.348 117.88C146.08 119.68 143.869 121.372 141.367 122.834L141.512 136.002C141.523 137.035 140.744 137.882 139.772 137.894C139.377 137.899 138.992 137.762 138.678 137.506L127.535 128.397C123.358 129.419 118.953 129.965 114.4 129.965C87.6694 129.965 66 111.127 66 87.8899C66 64.6526 87.6694 45.8149 114.4 45.8149C141.131 45.8149 162.8 64.6526 162.8 87.8899C162.8 94.3216 161.14 100.416 158.172 105.868C157.625 106.873 157.033 107.856 156.399 108.816C156.399 108.816 155.159 110.797 152.68 113.602C150.201 116.407 148.348 117.88 148.348 117.88Z" stroke="#007AFF" stroke-width="2.5" stroke-linecap="round"/>
<path fill-rule="evenodd" clip-rule="evenodd" d="M143.31 76.2862C147.978 76.2862 152.473 75.6948 156.685 74.6007C158.365 78.6676 159.28 83.0497 159.28 87.6164C159.28 93.5404 157.74 99.1539 154.988 104.175C154.481 105.101 153.932 106.007 153.344 106.891C152.415 108.287 151.754 109.272 151.171 110.063C149.792 111.932 148.856 112.709 145.878 115.239C143.892 116.927 141.726 118.456 139.405 119.803L139.539 131.931C139.55 132.882 139.822 134.629 138.921 134.64C138.554 134.644 137.203 133.552 136.912 133.316L127.928 124.791C124.054 125.732 118.621 126.37 114.4 126.37C89.613 126.37 69.5195 109.02 69.5195 87.6164C69.5195 70.0886 82.9952 55.2786 101.488 50.49C106.332 65.3327 123.22 76.2862 143.31 76.2862ZM97.0556 82.4186C94.1472 82.4186 91.7894 84.9399 91.7894 88.05C91.7894 91.1601 94.1472 93.6813 97.0556 93.6813C99.964 93.6813 102.322 91.1601 102.322 88.05C102.322 84.9399 99.964 82.4186 97.0556 82.4186ZM113.732 82.4186C110.823 82.4186 108.466 84.9399 108.466 88.05C108.466 91.1601 110.823 93.6813 113.732 93.6813C116.64 93.6813 118.998 91.1601 118.998 88.05C118.998 84.9399 116.64 82.4186 113.732 82.4186ZM130.408 82.4186C127.5 82.4186 125.142 84.9399 125.142 88.05C125.142 91.1601 127.5 93.6813 130.408 93.6813C133.316 93.6813 135.674 91.1601 135.674 88.05C135.674 84.9399 133.316 82.4186 130.408 82.4186Z" fill="#EFEFF4"/>
<path fill-rule="evenodd" clip-rule="evenodd" d="M96.7995 82.28C99.7156 82.28 102.08 84.7917 102.08 87.89C102.08 90.9883 99.7156 93.5 96.7995 93.5C93.8835 93.5 91.5195 90.9883 91.5195 87.89C91.5195 84.7917 93.8835 82.28 96.7995 82.28ZM113.52 82.28C116.436 82.28 118.8 84.7917 118.8 87.89C118.8 90.9883 116.436 93.5 113.52 93.5C110.603 93.5 108.24 90.9883 108.24 87.89C108.24 84.7917 110.603 82.28 113.52 82.28ZM130.24 82.28C133.156 82.28 135.52 84.7917 135.52 87.89C135.52 90.9883 133.156 93.5 130.24 93.5C127.323 93.5 124.96 90.9883 124.96 87.89C124.96 84.7917 127.323 82.28 130.24 82.28Z" fill="white" stroke="#007AFF" stroke-width="2.5"/>
<path d="M78.9023 74.156C78.1032 75.5884 77.4108 77.0749 76.834 78.6075" stroke="#007AFF" stroke-width="2.5" stroke-linecap="round"/>
<path d="M95.0591 58.9734C89.2927 61.8974 84.4243 66.0337 80.9062 70.9854" stroke="#007AFF" stroke-width="2.5" stroke-linecap="round"/>
</svg>
