<svg width="40" height="40" viewBox="0 0 40 40" fill="none" xmlns="http://www.w3.org/2000/svg">
<rect width="40" height="40" rx="8" fill="#007AFF"/>
<g clip-path="url(#clip0_1378_8314)">
<path d="M16.2646 23.6885C18.8574 26.2812 22.0039 28.2764 24.5703 28.2764C25.7217 28.2764 26.7324 27.8809 27.541 26.9844C28.0068 26.457 28.2969 25.8506 28.2969 25.2441C28.2969 24.7783 28.1211 24.3301 27.6729 24.0137L24.9746 22.0977C24.5527 21.7988 24.1924 21.6582 23.876 21.6582C23.4629 21.6582 23.1025 21.8867 22.6982 22.291L22.0566 22.9238C21.96 23.0205 21.8369 23.0557 21.7227 23.0557C21.582 23.0557 21.4502 23.0029 21.3535 22.959C20.8086 22.6602 19.8594 21.8428 18.9805 20.9727C18.1104 20.0938 17.293 19.1533 17.0029 18.5996C16.9502 18.5029 16.8975 18.3711 16.8975 18.2393C16.8975 18.125 16.9326 18.002 17.0381 17.9053L17.6621 17.2637C18.0664 16.8506 18.3037 16.4902 18.3037 16.0771C18.3037 15.7607 18.1543 15.4092 17.8555 14.9785L15.957 12.3066C15.6318 11.8584 15.1748 11.665 14.6738 11.665C14.085 11.665 13.4873 11.9287 12.96 12.4297C12.0898 13.2559 11.7031 14.2754 11.7031 15.418C11.7031 17.9844 13.6719 21.0957 16.2646 23.6885Z" fill="white"/>
</g>
<defs>
<clipPath id="clip0_1378_8314">
<rect width="28" height="28" fill="white" transform="translate(6 6)"/>
</clipPath>
</defs>
</svg>
