<svg width="220" height="176" viewBox="0 0 220 176" fill="none" xmlns="http://www.w3.org/2000/svg">
<path fill-rule="evenodd" clip-rule="evenodd" d="M55.44 117.92H135.52C135.973 117.92 136.415 117.871 136.84 117.778C137.265 117.871 137.707 117.92 138.16 117.92H183.92C187.322 117.92 190.08 115.162 190.08 111.76C190.08 108.358 187.322 105.6 183.92 105.6H178.64C175.238 105.6 172.48 102.842 172.48 99.4401C172.48 96.038 175.238 93.2801 178.64 93.2801H195.36C198.762 93.2801 201.52 90.5221 201.52 87.1201C201.52 83.718 198.762 80.9601 195.36 80.9601H176C179.402 80.9601 182.16 78.2021 182.16 74.8001C182.16 71.398 179.402 68.6401 176 68.6401H119.68C123.082 68.6401 125.84 65.8821 125.84 62.4801C125.84 59.078 123.082 56.3201 119.68 56.3201H69.52C66.1179 56.3201 63.36 59.078 63.36 62.4801C63.36 65.8821 66.1179 68.6401 69.52 68.6401H34.32C30.9179 68.6401 28.16 71.398 28.16 74.8001C28.16 78.2021 30.9179 80.9601 34.32 80.9601H56.32C59.722 80.9601 62.48 83.718 62.48 87.1201C62.48 90.5221 59.722 93.2801 56.32 93.2801H21.12C17.7179 93.2801 14.96 96.038 14.96 99.4401C14.96 102.842 17.7179 105.6 21.12 105.6H55.44C52.0379 105.6 49.28 108.358 49.28 111.76C49.28 115.162 52.0379 117.92 55.44 117.92ZM198.88 117.92C202.282 117.92 205.04 115.162 205.04 111.76C205.04 108.358 202.282 105.6 198.88 105.6C195.478 105.6 192.72 108.358 192.72 111.76C192.72 115.162 195.478 117.92 198.88 117.92Z" fill="white"/>
<path d="M146.96 130.24H166.696M56.3196 130.24H75.1992H56.3196ZM44.9922 130.24H51.0396H44.9922ZM170.832 130.24H173.36H170.832Z" stroke="#007AFF" stroke-width="2.5" stroke-linecap="round" stroke-linejoin="round"/>
<path d="M86.2402 38.1065L96.0079 49.0652M132.088 38.1065L122.32 49.0652L132.088 38.1065ZM109.12 34.3201V49.0652V34.3201Z" stroke="#007AFF" stroke-width="2.5" stroke-linecap="round" stroke-linejoin="round"/>
<path fill-rule="evenodd" clip-rule="evenodd" d="M81.6622 62.48H136.756L131.822 69.8806L138.401 74.8144H80.0176L87.4182 69.8806L81.6622 62.48Z" fill="#EFEFF4"/>
<path fill-rule="evenodd" clip-rule="evenodd" d="M82.3555 109.125V78.8878C82.3555 77.642 83.3765 76.6321 84.636 76.6321L138.295 133.024C138.295 134.686 136.966 136.032 135.325 136.032H85.3254C83.6852 136.032 82.3555 134.686 82.3555 133.024V121.787V118.738V109.125ZM82.3555 115.654V112.267V115.654Z" fill="#EFEFF4"/>
<path d="M79.2002 109.528V76.4591C79.2002 75.0967 80.3182 73.9922 81.6974 73.9922H138.83C139.728 73.9922 140.456 74.7285 140.456 75.6368V135.664C140.456 137.481 139 138.953 137.204 138.953H82.4524C80.6562 138.953 79.2002 137.481 79.2002 135.664V123.375V120.041M79.2002 116.667V112.964" stroke="#007AFF" stroke-width="2.5" stroke-linecap="round"/>
<path d="M80.8397 73.9922V64.1246C80.8397 63.2164 81.5005 62.4801 82.3157 62.4801L136.924 62.4801C137.74 62.4801 138.4 63.2164 138.4 64.1246V73.9922" stroke="#007AFF" stroke-width="2.5"/>
<path d="M96.0519 91.2602C97.6414 91.2602 98.9299 89.9717 98.9299 88.3822C98.9299 86.7927 97.6414 85.5042 96.0519 85.5042C94.4624 85.5042 93.1738 86.7927 93.1738 88.3822C93.1738 89.9717 94.4624 91.2602 96.0519 91.2602Z" fill="#EFEFF4" stroke="#007AFF" stroke-width="2.5" stroke-linecap="round"/>
<path d="M123.188 91.2602C124.777 91.2602 126.066 89.9717 126.066 88.3822C126.066 86.7927 124.777 85.5042 123.188 85.5042C121.598 85.5042 120.31 86.7927 120.31 88.3822C120.31 89.9717 121.598 91.2602 123.188 91.2602Z" fill="#EFEFF4" stroke="#007AFF" stroke-width="2.5" stroke-linecap="round"/>
<path d="M122.777 91.2603C122.777 98.5265 116.887 104.417 109.621 104.417C102.354 104.417 96.4639 98.5265 96.4639 91.2603" stroke="#007AFF" stroke-width="2.5" stroke-linecap="round"/>
<path d="M81.7123 63.2996L87.5013 69.014C87.8472 69.3554 87.8508 69.9126 87.5094 70.2585C87.4503 70.3183 87.3829 70.3694 87.3094 70.4101L80.8398 73.992" stroke="#007AFF" stroke-width="2.5" stroke-linecap="round"/>
<path d="M137.668 63.3594L132.128 69.0094C131.788 69.3564 131.793 69.9136 132.14 70.2538C132.198 70.3106 132.264 70.3591 132.335 70.398L138.924 73.9922" stroke="#007AFF" stroke-width="2.5" stroke-linecap="round"/>
</svg>
