<svg width="40" height="40" viewBox="0 0 40 40" fill="none" xmlns="http://www.w3.org/2000/svg">
<rect width="40" height="40" rx="8" fill="#FF3B30"/>
<g clip-path="url(#clip0_1769_3107)">
<path d="M23.1126 25.7747C25.6045 24.7325 23.2642 20.6678 21.1039 18.4886C18.9248 16.3283 14.9453 13.9786 13.8273 16.4515L8.16137 29.0151C7.53603 30.4079 8.83408 31.7438 10.2363 31.1564L23.1126 25.7747ZM17.6741 21.909C15.4001 19.6445 14.4811 17.4748 15.1159 16.8494C15.7412 16.2147 17.9015 17.1432 20.1659 19.4266C22.4589 21.6911 23.3684 23.8608 22.7431 24.4767C22.1083 25.121 19.948 24.1924 17.6741 21.909Z" fill="white"/>
<path d="M16.509 10.075C17.0775 10.075 17.5513 9.61072 17.5513 9.03275C17.5513 8.46427 17.0775 8 16.509 8C15.9216 8 15.4668 8.46427 15.4668 9.03275C15.4668 9.61072 15.9216 10.075 16.509 10.075ZM17.7597 11.8468C17.6933 11.4962 17.466 11.2025 17.0965 11.2025C16.7459 11.212 16.3859 11.5057 16.4616 11.8847C16.8881 14.1112 16.8881 16.4041 16.4616 18.6686C16.3763 19.0381 16.7459 19.3224 17.087 19.3318C17.4471 19.3318 17.6839 19.0476 17.7503 18.6971C18.1955 16.3852 18.1955 14.1302 17.7597 11.8468ZM22.3645 11.7141C23.3593 11.7141 24.1457 10.9182 24.1457 9.93286C24.1457 8.92853 23.3593 8.1516 22.3645 8.1516C21.3696 8.1516 20.5832 8.92853 20.5832 9.93286C20.5832 10.9182 21.3696 11.7141 22.3645 11.7141ZM20.5642 14.6987C21.0285 14.6987 21.398 14.3197 21.398 13.8554C21.398 13.4006 21.0285 13.0216 20.5642 13.0216C20.1094 13.0216 19.721 13.4006 19.721 13.8554C19.721 14.3197 20.1094 14.6987 20.5642 14.6987ZM30.0959 10.615C30.5507 10.615 30.9202 10.2455 30.9202 9.78126C30.9202 9.317 30.5507 8.93801 30.0959 8.93801C29.6316 8.93801 29.2621 9.317 29.2621 9.78126C29.2621 10.2455 29.6316 10.615 30.0959 10.615ZM27.3577 11.2309L25.5859 13.0027C25.3301 13.2585 25.3396 13.6754 25.5859 13.9312C25.8512 14.187 26.2681 14.1965 26.5239 13.9312L28.2957 12.1689C28.5515 11.9131 28.542 11.4867 28.2957 11.2309C28.0398 10.9846 27.6135 10.9751 27.3577 11.2309ZM23.8425 14.7555L19.0104 19.5782C18.7545 19.8246 18.7641 20.2604 19.0104 20.5162C19.2662 20.7626 19.702 20.7721 19.9484 20.5162L24.7711 15.6841C25.0079 15.4377 25.0174 15.0114 24.7711 14.7555C24.5247 14.4997 24.0889 14.5187 23.8425 14.7555ZM30.9581 19.1139C31.536 19.1139 32.0004 18.6497 32.0004 18.0622C32.0004 17.4938 31.536 17.0295 30.9581 17.0295C30.3706 17.0295 29.9158 17.4938 29.9158 18.0622C29.9158 18.6497 30.3706 19.1139 30.9581 19.1139ZM26.8839 19.5024C27.7272 19.5024 28.3999 18.8487 28.3999 18.0054C28.3999 17.1716 27.7272 16.4989 26.8839 16.4989C26.0502 16.4989 25.3964 17.1716 25.3964 18.0054C25.3964 18.8487 26.0502 19.5024 26.8839 19.5024ZM30.5981 23.965C31.176 23.965 31.6402 23.5103 31.6402 22.9228C31.6402 22.3449 31.176 21.8806 30.5981 21.8806C30.0201 21.8806 29.5558 22.3449 29.5558 22.9228C29.5558 23.5103 30.0201 23.965 30.5981 23.965ZM27.7083 21.7669C25.4153 21.3311 23.1698 21.3311 20.8485 21.7669C20.5074 21.8427 20.2136 22.0796 20.2232 22.4302C20.2232 22.7807 20.5074 23.1502 20.8864 23.0744C23.1508 22.6481 25.4343 22.6386 27.6703 23.0649C28.0304 23.1408 28.3336 22.7902 28.343 22.4302C28.3525 22.0606 28.0493 21.8332 27.7083 21.7669Z" fill="white"/>
</g>
<defs>
<clipPath id="clip0_1769_3107">
<rect width="24" height="23.7533" fill="white" transform="translate(8 8)"/>
</clipPath>
</defs>
</svg>
