<svg width="40" height="40" viewBox="0 0 40 40" fill="none" xmlns="http://www.w3.org/2000/svg">
<rect width="40" height="40" rx="8" fill="#FF9500"/>
<g clip-path="url(#clip0_1387_9161)">
<path d="M10.6699 29.3203H23.7656C24.2865 29.3203 24.695 29.2047 24.9912 28.9736C25.2874 28.7425 25.4355 28.4252 25.4355 28.0215C25.4355 27.3965 25.2451 26.7357 24.8643 26.0391C24.4834 25.3424 23.9365 24.6898 23.2236 24.0811C22.5107 23.4724 21.6481 22.9776 20.6357 22.5967C19.6234 22.2158 18.4824 22.0254 17.2129 22.0254C15.9499 22.0254 14.8122 22.2158 13.7998 22.5967C12.7874 22.9776 11.9232 23.4724 11.207 24.0811C10.4909 24.6898 9.94401 25.3424 9.56641 26.0391C9.1888 26.7357 9 27.3965 9 28.0215C9 28.4252 9.14811 28.7425 9.44434 28.9736C9.74056 29.2047 10.1491 29.3203 10.6699 29.3203ZM17.2227 20.2773C17.9193 20.2773 18.5638 20.0869 19.1562 19.706C19.7487 19.3252 20.2256 18.8092 20.5869 18.1582C20.9482 17.5072 21.1289 16.7747 21.1289 15.9609C21.1289 15.1602 20.9482 14.4424 20.5869 13.8076C20.2256 13.1729 19.7487 12.6732 19.1562 12.3086C18.5638 11.944 17.9193 11.7617 17.2227 11.7617C16.526 11.7617 15.8815 11.9473 15.2891 12.3184C14.6966 12.6895 14.2197 13.194 13.8584 13.832C13.4971 14.4701 13.3164 15.1862 13.3164 15.9805C13.3164 16.7878 13.4971 17.5153 13.8584 18.1631C14.2197 18.8109 14.6966 19.3252 15.2891 19.706C15.8815 20.0869 16.526 20.2773 17.2227 20.2773ZM26.7539 18.0215C26.9948 18.0215 27.1852 17.9531 27.3252 17.8164C27.4652 17.6797 27.5352 17.5169 27.5352 17.3281C27.5352 17.3086 27.5352 17.2874 27.5352 17.2646C27.5352 17.2419 27.5352 17.224 27.5352 17.2109C27.5352 16.9375 27.6166 16.7015 27.7793 16.5029C27.942 16.3044 28.1959 16.0911 28.541 15.8633C29.0097 15.5508 29.3971 15.2253 29.7031 14.8867C30.0091 14.5482 30.1621 14.0859 30.1621 13.5C30.1621 12.9596 30.0172 12.5039 29.7275 12.1328C29.4378 11.7617 29.0586 11.4801 28.5898 11.2881C28.1211 11.096 27.61 11 27.0566 11C26.2168 11 25.5316 11.1709 25.001 11.5127C24.4704 11.8545 24.1367 12.25 24 12.6992C23.9739 12.7773 23.9544 12.8555 23.9414 12.9336C23.9284 13.0117 23.9219 13.0931 23.9219 13.1777C23.9219 13.3991 23.9935 13.5667 24.1367 13.6807C24.28 13.7946 24.433 13.8516 24.5957 13.8516C24.7584 13.8516 24.8968 13.8158 25.0107 13.7441C25.1246 13.6725 25.2239 13.5781 25.3086 13.4609L25.4844 13.2266C25.6016 13.0378 25.7351 12.8766 25.8848 12.7432C26.0345 12.6097 26.2022 12.5072 26.3877 12.4355C26.5732 12.3639 26.7734 12.3281 26.9883 12.3281C27.4375 12.3281 27.7956 12.4437 28.0625 12.6748C28.3294 12.9059 28.4629 13.207 28.4629 13.5781C28.4629 13.9102 28.3587 14.182 28.1504 14.3935C27.9421 14.6051 27.6231 14.8607 27.1934 15.1602C26.8418 15.401 26.5504 15.668 26.3193 15.9609C26.0882 16.2539 25.9727 16.6413 25.9727 17.1231C25.9727 17.1426 25.9727 17.1637 25.9727 17.1865C25.9727 17.2093 25.9727 17.2305 25.9727 17.25C25.9727 17.7643 26.2331 18.0215 26.7539 18.0215ZM26.7246 20.9316C27.0111 20.9316 27.2585 20.834 27.4668 20.6387C27.6751 20.4434 27.7793 20.2025 27.7793 19.916C27.7793 19.6296 27.6751 19.3887 27.4668 19.1934C27.2585 18.998 27.0111 18.9004 26.7246 18.9004C26.4381 18.9004 26.1924 18.9997 25.9873 19.1982C25.7822 19.3968 25.6797 19.6361 25.6797 19.916C25.6797 20.196 25.7839 20.4352 25.9922 20.6338C26.2005 20.8324 26.4447 20.9316 26.7246 20.9316Z" fill="white"/>
</g>
<defs>
<clipPath id="clip0_1387_9161">
<rect width="21.1621" height="18.7598" fill="white" transform="translate(9 11)"/>
</clipPath>
</defs>
</svg>
