<svg width="40" height="40" viewBox="0 0 40 40" fill="none" xmlns="http://www.w3.org/2000/svg">
<rect width="40" height="40" rx="8" fill="#FF9500"/>
<g clip-path="url(#clip0_1378_8301)">
<path d="M10.5869 27.9072H11.6416C12.3184 27.9072 12.8369 27.3887 12.8369 26.7207V25.2002C14.7881 25.332 17.6709 25.4199 20 25.4199C22.3203 25.4199 25.2031 25.332 27.1631 25.2002V26.7207C27.1631 27.3887 27.6729 27.9072 28.3496 27.9072H29.4043C30.0723 27.9072 30.5908 27.3887 30.5908 26.7207V21.5176C30.5908 19.9795 30.3096 19.1182 29.4834 18.0547L28.71 17.0703C28.3848 15.4883 27.7959 13.8271 27.4971 13.1768C27.0049 12.1484 26.0645 11.5244 24.8516 11.3662C24.2188 11.2783 22.3291 11.2344 20 11.2344C17.6621 11.2344 15.7725 11.2871 15.1484 11.3662C13.9268 11.5156 12.9863 12.1484 12.4941 13.1768C12.1953 13.8271 11.6064 15.4883 11.2812 17.0703L10.5078 18.0547C9.69043 19.1182 9.40039 19.9795 9.40039 21.5176V26.7207C9.40039 27.3887 9.91895 27.9072 10.5869 27.9072ZM13.2412 16.2705C13.4346 15.3916 13.8301 14.2227 14.0938 13.748C14.3486 13.291 14.6387 13.0977 15.1748 13.0273C15.7988 12.9395 17.3018 12.8867 20 12.8867C22.6895 12.8867 24.1924 12.9219 24.8164 13.0273C25.3525 13.1064 25.6338 13.291 25.8975 13.748C26.1699 14.2139 26.5391 15.3916 26.75 16.2705C26.8467 16.6484 26.6797 16.8154 26.2842 16.7891C24.9307 16.71 23.2168 16.6221 20 16.6221C16.7744 16.6221 15.0605 16.71 13.707 16.7891C13.3115 16.8154 13.1533 16.6484 13.2412 16.2705ZM13.5664 22.9678C12.7314 22.9678 12.0986 22.335 12.0986 21.5C12.0986 20.665 12.7314 20.0322 13.5664 20.0322C14.4014 20.0322 15.0342 20.665 15.0342 21.5C15.0342 22.335 14.4014 22.9678 13.5664 22.9678ZM26.4248 22.9678C25.5898 22.9678 24.957 22.335 24.957 21.5C24.957 20.665 25.5898 20.0322 26.4248 20.0322C27.2598 20.0322 27.8926 20.665 27.8926 21.5C27.8926 22.335 27.2598 22.9678 26.4248 22.9678ZM17.627 22.6074C17.0029 22.6074 16.5635 22.168 16.5635 21.5439C16.5635 20.9199 17.0029 20.4805 17.627 20.4805H22.3643C22.9883 20.4805 23.4277 20.9199 23.4277 21.5439C23.4277 22.168 22.9883 22.6074 22.3643 22.6074H17.627Z" fill="white"/>
</g>
<defs>
<clipPath id="clip0_1378_8301">
<rect width="28" height="28" fill="white" transform="translate(6 6)"/>
</clipPath>
</defs>
</svg>
