<svg width="40" height="40" viewBox="0 0 40 40" fill="none" xmlns="http://www.w3.org/2000/svg">
<rect width="40" height="40" rx="8" fill="#007AFF"/>
<g clip-path="url(#clip0_1769_3170)">
<path d="M13.8242 21.7188C13.3555 21.7188 13.0039 21.3672 13.0039 20.8984C13.0039 20.4414 13.3555 20.0898 13.8242 20.0898H19.1328V13C19.1328 12.543 19.4844 12.1914 19.9414 12.1914C20.3984 12.1914 20.7617 12.543 20.7617 13V20.8984C20.7617 21.3672 20.3984 21.7188 19.9414 21.7188H13.8242ZM19.9531 32.4062C26.4922 32.4062 31.9062 26.9805 31.9062 20.4531C31.9062 13.9141 26.4805 8.5 19.9414 8.5C13.4141 8.5 8 13.9141 8 20.4531C8 26.9805 13.4258 32.4062 19.9531 32.4062Z" fill="white"/>
</g>
<defs>
<clipPath id="clip0_1769_3170">
<rect width="23.9062" height="23.918" fill="white" transform="translate(8 8.5)"/>
</clipPath>
</defs>
</svg>
