<svg width="40" height="40" viewBox="0 0 40 40" fill="none" xmlns="http://www.w3.org/2000/svg">
<rect width="40" height="40" rx="8" fill="#007AFF"/>
<g clip-path="url(#clip0_1378_8897)">
<path d="M20 29.2334C24.9658 29.2334 29.0791 25.1289 29.0791 20.1543C29.0791 15.1885 24.9658 11.0752 19.9912 11.0752C15.0254 11.0752 10.9209 15.1885 10.9209 20.1543C10.9209 25.1289 15.0342 29.2334 20 29.2334ZM20 27.4492C15.957 27.4492 12.7139 24.1973 12.7139 20.1543C12.7139 16.1113 15.9482 12.8682 19.9912 12.8682C24.0342 12.8682 27.2861 16.1113 27.2949 20.1543C27.2949 24.1973 24.043 27.4492 20 27.4492ZM15.5527 21.2441H19.9912C20.3867 21.2441 20.6943 20.9365 20.6943 20.5498V14.7842C20.6943 14.3975 20.3867 14.0898 19.9912 14.0898C19.6045 14.0898 19.2969 14.3975 19.2969 14.7842V19.8555H15.5527C15.1572 19.8555 14.8584 20.1543 14.8584 20.5498C14.8584 20.9365 15.1572 21.2441 15.5527 21.2441Z" fill="white"/>
</g>
<defs>
<clipPath id="clip0_1378_8897">
<rect width="28" height="28" fill="white" transform="translate(6 6.5)"/>
</clipPath>
</defs>
</svg>
