<svg width="40" height="40" viewBox="0 0 40 40" fill="none" xmlns="http://www.w3.org/2000/svg">
<rect width="40" height="40" rx="8" fill="#34C759"/>
<g clip-path="url(#clip0_1378_8357)">
<path d="M20 28.7334C24.9658 28.7334 29.0791 24.6289 29.0791 19.6543C29.0791 14.6885 24.9658 10.5752 19.9912 10.5752C15.0254 10.5752 10.9209 14.6885 10.9209 19.6543C10.9209 24.6289 15.0342 28.7334 20 28.7334ZM17.6621 17.8701C17.627 17.5361 17.4688 17.2373 17.2402 17.0088C17.9961 15.1279 19.1738 13.4141 20.7119 12.0166C20.8174 12.0254 20.9229 12.043 21.0195 12.0518C19.9385 13.9502 19.2793 16.0508 19.1123 18.2393C18.6201 18.1514 18.1367 18.0283 17.6621 17.8701ZM13.6543 15.374C14.8584 13.5986 16.7832 12.3506 18.9893 12.0518C17.7588 13.3877 16.792 14.9258 16.124 16.5957C15.8779 16.6133 15.6494 16.6924 15.4473 16.8242C14.7969 16.4111 14.1992 15.9277 13.6543 15.374ZM22.8037 15.4355C22.7861 14.5039 22.918 13.5723 23.1729 12.6846C24.8076 13.4404 26.1436 14.7588 26.9258 16.376C26.0557 17.0352 25.1064 17.5361 24.0869 17.8789C23.832 17.5625 23.4453 17.3516 23.0146 17.3428C22.8828 16.7275 22.8037 16.0859 22.8037 15.4355ZM21.6084 15.4355C21.6172 16.2529 21.7139 17.0615 21.8984 17.835C21.7666 17.9844 21.6611 18.1689 21.5996 18.3711C21.3799 18.3799 21.1514 18.3887 20.9229 18.3887C20.7207 18.3975 20.5098 18.3887 20.2988 18.3799C20.4395 16.4727 20.9756 14.6445 21.8633 12.9922C21.6875 13.792 21.5996 14.6094 21.6084 15.4355ZM12.3271 19.6543C12.3271 18.5205 12.582 17.4395 13.0303 16.4727C13.5752 16.9824 14.1641 17.4395 14.7969 17.835C14.7881 17.8965 14.7793 17.9668 14.7793 18.0371C14.7793 18.5117 15.0078 18.9336 15.3682 19.1973C15.2012 20.0586 15.1133 20.9375 15.1045 21.834C14.1201 21.3506 13.1973 20.7441 12.3359 20.0234C12.3359 19.9004 12.3271 19.7773 12.3271 19.6543ZM27.6729 19.6543C27.6729 20.3574 27.5762 21.0342 27.3916 21.6846C26.8994 21.9482 26.3984 22.1768 25.8887 22.3701C25.0889 21.6406 24.4297 20.7881 23.9287 19.8477C24.1572 19.6455 24.3242 19.3555 24.3857 19.0391C25.4492 18.6963 26.4512 18.1953 27.374 17.5449C27.5674 18.2217 27.6729 18.9248 27.6729 19.6543ZM16.291 22.3525C16.2646 21.3682 16.3438 20.4014 16.5283 19.4521C16.8271 19.3906 17.0996 19.2324 17.293 19.0039C17.873 19.1973 18.4707 19.3467 19.0684 19.4434C19.0771 20.5332 19.2002 21.6055 19.4375 22.6426C19.2881 22.7656 19.165 22.915 19.0684 23.0908C18.1279 22.9414 17.1963 22.6953 16.291 22.3525ZM20.9316 19.584C21.2129 19.584 21.4941 19.5752 21.7666 19.5488C21.9863 19.8916 22.3467 20.1377 22.7686 20.1992C23.252 21.1396 23.8672 22.0186 24.6143 22.7832C23.6562 23.0381 22.6719 23.1875 21.6963 23.2314C21.5117 22.7744 21.0986 22.4316 20.5977 22.3438C20.3955 21.4385 20.2812 20.5156 20.2637 19.5664C20.4834 19.584 20.7119 19.584 20.9316 19.584ZM12.626 21.7549C13.417 22.3086 14.2607 22.7832 15.1309 23.1699C15.1748 24.084 15.3242 24.9893 15.5615 25.8857C14.1641 24.8838 13.1182 23.4336 12.626 21.7549ZM20 27.3271C18.9717 27.3271 17.9873 27.1162 17.0908 26.7383C16.7129 25.7451 16.4668 24.708 16.3613 23.6445C17.2227 23.9346 18.1016 24.1455 18.9893 24.2773C19.1826 24.8047 19.6836 25.1914 20.2812 25.2178C20.5801 25.9033 20.9316 26.5713 21.3271 27.2041C20.8965 27.2832 20.457 27.3271 20 27.3271ZM21.3887 24.7783C21.4941 24.6729 21.5732 24.5586 21.6436 24.4268C22.9971 24.374 24.3418 24.1455 25.6426 23.7236C25.8271 23.8643 26.0117 24.0049 26.1963 24.1367C25.291 25.3848 24.0166 26.3604 22.54 26.8877C22.0918 26.2109 21.7139 25.5078 21.3887 24.7783Z" fill="white"/>
</g>
<defs>
<clipPath id="clip0_1378_8357">
<rect width="28" height="28" fill="white" transform="translate(6 6)"/>
</clipPath>
</defs>
</svg>
