<svg width="48" height="48" viewBox="0 0 48 48" fill="none" xmlns="http://www.w3.org/2000/svg">
<rect width="48" height="48" rx="24" fill="#33CCFF"/>
<path d="M35.9126 16.4007C35.1201 16.7421 34.2869 16.9798 33.4336 17.108C33.8325 17.0396 34.4195 16.3209 34.6532 16.03C35.0082 15.5912 35.2787 15.0902 35.451 14.5526C35.451 14.5127 35.4909 14.4557 35.451 14.4271C35.4309 14.4161 35.4084 14.4104 35.3855 14.4104C35.3626 14.4104 35.3401 14.4161 35.32 14.4271C34.3934 14.9293 33.4073 15.3126 32.385 15.5679C32.3494 15.5788 32.3114 15.5798 32.2753 15.5708C32.2392 15.5617 32.2062 15.543 32.1798 15.5166C32.1003 15.4218 32.0146 15.3322 31.9234 15.2485C31.5064 14.8746 31.0333 14.5685 30.5214 14.3416C29.8305 14.0578 29.0841 13.935 28.3388 13.9822C27.6155 14.0279 26.9094 14.2221 26.2643 14.5526C25.6291 14.9011 25.0708 15.3745 24.623 15.9444C24.152 16.531 23.812 17.2117 23.6257 17.9408C23.4722 18.6343 23.4547 19.3511 23.5744 20.0513C23.5744 20.1711 23.5744 20.1882 23.4719 20.1711C19.4085 19.5721 16.0746 18.129 13.3505 15.0318C13.2309 14.8949 13.1682 14.8949 13.0713 15.0318C11.8859 16.8342 12.4615 19.6862 13.9432 21.0951C14.1427 21.2834 14.3479 21.4659 14.5644 21.637C13.8851 21.5887 13.2223 21.4045 12.6154 21.0951C12.5014 21.021 12.4387 21.0609 12.433 21.1978C12.4169 21.3876 12.4169 21.5784 12.433 21.7682C12.5519 22.6777 12.9101 23.5394 13.4708 24.265C14.0315 24.9906 14.7747 25.5541 15.6244 25.8979C15.8315 25.9867 16.0474 26.0536 16.2684 26.0975C15.6395 26.2215 14.9944 26.2407 14.3592 26.1546C14.2225 26.1261 14.1712 26.2002 14.2225 26.3314C15.0602 28.613 16.8782 29.3089 18.2117 29.6968C18.3941 29.7253 18.5765 29.7253 18.7816 29.7709C18.7816 29.7709 18.7816 29.7709 18.7474 29.8051C18.3542 30.5238 16.7642 31.0087 16.0347 31.2597C14.7033 31.7383 13.2837 31.9213 11.8745 31.7958C11.6523 31.7616 11.601 31.7673 11.544 31.7958C11.487 31.8244 11.544 31.8871 11.6067 31.9441C11.8916 32.1324 12.1766 32.2978 12.4729 32.4575C13.3551 32.9391 14.2878 33.3217 15.254 33.5983C20.2577 34.9787 25.8882 33.9634 29.6438 30.2272C32.5959 27.2954 33.6331 23.2512 33.6331 19.2014C33.6331 19.0474 33.8211 18.9561 33.9294 18.8763C34.6763 18.2938 35.3347 17.606 35.8842 16.8342C35.9793 16.7192 36.0281 16.5727 36.0209 16.4235C36.0209 16.338 36.0209 16.3551 35.9126 16.4007Z" fill="white"/>
</svg>
