<svg width="48" height="48" viewBox="0 0 48 48" fill="none" xmlns="http://www.w3.org/2000/svg">
<rect width="48" height="48" rx="24" fill="#FF0000"/>
<path d="M37.3504 17.3979C37.037 16.2197 36.1099 15.2903 34.9304 14.9717C32.7976 14.4001 24.2405 14.4001 24.2405 14.4001C24.2405 14.4001 15.6878 14.4001 13.5507 14.9717C12.3756 15.2859 11.4485 16.2154 11.1307 17.3979C10.5605 19.5361 10.5605 24.0001 10.5605 24.0001C10.5605 24.0001 10.5605 28.4641 11.1307 30.6023C11.4441 31.7805 12.3712 32.7099 13.5507 33.0285C15.6878 33.6001 24.2405 33.6001 24.2405 33.6001C24.2405 33.6001 32.7976 33.6001 34.9304 33.0285C36.1055 32.7143 37.0326 31.7848 37.3504 30.6023C37.9205 28.4641 37.9205 24.0001 37.9205 24.0001C37.9205 24.0001 37.9205 19.5361 37.3504 17.3979Z" fill="white"/>
<path d="M21.5072 28.115L28.6148 24.0001L21.5072 19.8852V28.115Z" fill="#FF0000"/>
</svg>
